<svg width="226" height="181" viewBox="0 0 226 181" fill="none" xmlns="http://www.w3.org/2000/svg">
<g id="OBJECTS">
<path id="Vector" d="M203.422 8.31738H18.8201C13.761 8.31738 9.65973 12.8549 9.65973 18.4523V148.494C9.65973 154.091 13.761 158.629 18.8201 158.629H203.422C208.481 158.629 212.583 154.091 212.583 148.494V18.4523C212.583 12.8549 208.481 8.31738 203.422 8.31738Z" fill="#F2C6B3"/>
<path id="Vector_2" d="M212.588 18.4521V27.5065L94.0709 158.626H25.2943L161.16 8.31445H203.425C205.854 8.3159 208.184 9.38442 209.902 11.2853C211.621 13.1861 212.586 15.7638 212.588 18.4521Z" fill="#F3D7C8"/>
<path id="Vector_3" d="M89.8302 8.31445L9.66218 97.011V63.2807L59.3358 8.31445H89.8302Z" fill="#F3D7C8"/>
<path id="Vector_4" d="M212.588 83.9307V105.15L164.25 158.625H145.075L212.588 83.9307Z" fill="#F3D7C8"/>
<path id="Vector_5" d="M146.989 178.214H83.5798L89.8302 102.758L90.7896 88.6034L105.214 81.5547H125.353L139.11 88.2822L139.772 88.6034L140.702 102.371L146.989 178.214Z" fill="#293156"/>
<path id="Vector_6" d="M146.987 178.215H83.5921L85.4468 155.67C95.5788 164.689 108.953 170.17 123.601 170.17C131.236 170.189 138.81 168.663 145.949 165.669L146.987 178.215Z" fill="#272E52"/>
<path id="Vector_7" d="M140.702 102.372C140.64 102.448 140.571 102.53 140.498 102.611C137.17 106.471 133.171 109.547 128.742 111.654C124.313 113.762 119.545 114.858 114.724 114.877C107.894 114.902 101.22 112.623 95.5911 108.345C93.4817 106.736 91.5485 104.861 89.8302 102.758L90.7895 88.6063L105.214 81.5576H125.352L139.11 88.2852L139.772 88.6063L140.702 102.372Z" fill="#242C4D"/>
<path id="Vector_8" d="M172.286 54.8955L165.435 67.0089L177.427 75.5436L184.312 64.0996L172.286 54.8955Z" fill="#D58282"/>
<path id="Vector_9" d="M187.812 59.3648C186.464 62.47 184.396 65.0446 183.215 66.3727C182.674 66.9823 182.327 67.3225 182.327 67.3225L170.134 58.6871L170.889 57.2638L174.502 50.4736L187.812 59.3648Z" fill="#E49292"/>
<path id="Vector_10" d="M183.215 66.3716C182.674 66.9812 182.327 67.3214 182.327 67.3214L170.134 58.686L170.889 57.2627C173.927 58.7241 178.836 61.5926 183.215 66.3716Z" fill="#D58282"/>
<path id="Vector_11" d="M188.626 70.7867C188.68 70.9434 188.772 71.0802 188.892 71.1813C189.876 71.9977 192.481 69.9893 194.715 66.699C196.948 63.4087 197.974 60.0803 196.99 59.2638C196.866 59.1659 196.721 59.1067 196.569 59.0924C196.195 58.9373 195.585 58.6651 194.778 58.2759C192.161 56.9941 188.875 55.5544 183.69 51.2436C175.757 44.6494 173.019 39.3506 173.019 39.3506L164.926 51.2681C164.926 51.2681 170.291 52.7023 178.224 59.2938L178.322 59.3754C185.035 64.9708 187.613 69.298 188.626 70.7867Z" fill="white"/>
<path id="Vector_12" d="M188.897 71.1817C189.881 71.9982 192.486 69.9897 194.719 66.6994C196.953 63.4091 197.974 60.0807 196.99 59.2643C196.866 59.1663 196.721 59.1071 196.569 59.0928C196.195 58.9377 195.585 58.6655 194.778 58.2764C188.09 67.0886 179.422 60.2903 178.322 59.365C185.035 64.9658 187.613 69.293 188.631 70.7953C188.686 70.949 188.778 71.0829 188.897 71.1817Z" fill="#EDF0FC"/>
<path id="Vector_13" d="M164.926 51.2618C165.91 52.0783 168.513 50.0698 170.746 46.7795C172.98 43.4892 173.998 40.1581 173.016 39.3444C172.035 38.5306 169.44 40.55 167.194 43.8158C164.948 47.0816 163.945 50.4481 164.926 51.2618Z" fill="#485489"/>
<path id="Vector_14" d="M192.085 55.7291C191.347 57.1634 190.137 58.6983 189.308 59.6889C189.086 59.9541 188.81 60.1569 188.503 60.2806C188.196 60.4044 187.867 60.4455 187.543 60.4005C187.219 60.3556 186.909 60.2259 186.64 60.0221C186.37 59.8184 186.148 59.5465 185.992 59.229L185.96 59.1555C182.979 60.8565 181.835 57.5662 181.835 57.5662C178.716 57.4001 178.76 54.401 178.76 54.401C178.506 54.4695 178.242 54.478 177.984 54.426C177.727 54.3739 177.483 54.2625 177.267 54.099C176.745 53.6985 176.369 53.1057 176.206 52.4267C176.043 51.7476 176.103 51.0265 176.377 50.3923C176.448 50.2208 176.517 50.0575 176.593 49.8997C176.959 49.074 177.406 48.2955 177.926 47.5782C178.714 46.4644 179.725 45.5674 180.878 44.9574C181.394 44.6875 181.968 44.5802 182.535 44.6474C183.103 44.7147 183.643 44.9538 184.095 45.3384C184.536 45.6737 184.906 46.1088 185.183 46.6148C187.173 47.0203 187.95 49.3091 187.95 49.3091C189.883 50.1256 190.639 52.2565 190.639 52.2565C191.018 52.3952 191.371 52.6112 191.679 52.8933C192.034 53.2404 192.268 53.7132 192.342 54.2306C192.416 54.748 192.325 55.2778 192.085 55.7291Z" fill="#E49292"/>
<path id="Vector_15" d="M177.23 54.0683C176.72 53.6637 176.355 53.073 176.199 52.4C176.043 51.727 176.107 51.0149 176.379 50.3888C176.445 50.2173 176.517 50.0568 176.593 49.8962C176.959 49.0716 177.406 48.294 177.926 47.5775C178.047 47.4115 178.172 47.2591 178.288 47.1094C178.588 48.0047 179.119 50.533 177.23 54.0683Z" fill="#B87373"/>
<path id="Vector_16" d="M188.007 55.4587C188.06 55.5067 188.105 55.566 188.137 55.6331C188.17 55.7003 188.191 55.774 188.198 55.8499C188.204 55.9258 188.198 56.0025 188.177 56.0755C188.157 56.1485 188.124 56.2164 188.08 56.2752L185.958 59.1654C185.439 59.489 184.853 59.6569 184.258 59.6526L187.271 55.5485C187.358 55.4295 187.485 55.3533 187.622 55.3365C187.76 55.3197 187.898 55.3636 188.007 55.4587Z" fill="#D58282"/>
<path id="Vector_17" d="M184.661 52.8189C184.715 52.8671 184.759 52.9265 184.791 52.9936C184.824 53.0608 184.844 53.1344 184.851 53.2102C184.858 53.286 184.851 53.3626 184.831 53.4356C184.811 53.5085 184.779 53.5764 184.735 53.6353L181.837 57.5815C181.443 57.5643 181.052 57.4874 180.676 57.3529L183.933 52.9196C184.018 52.8007 184.142 52.7235 184.279 52.7047C184.415 52.6858 184.552 52.7269 184.661 52.8189Z" fill="#D58282"/>
<path id="Vector_18" d="M181.591 49.687C181.645 49.735 181.689 49.7943 181.722 49.8615C181.755 49.9286 181.775 50.0023 181.782 50.0782C181.789 50.1542 181.782 50.2308 181.762 50.3038C181.742 50.3768 181.709 50.4447 181.665 50.5035L178.765 54.4497V54.4034C178.361 54.5153 177.935 54.4701 177.557 54.2755L180.858 49.7796C180.901 49.7202 180.954 49.6707 181.014 49.634C181.074 49.5972 181.139 49.5738 181.208 49.5652C181.276 49.5566 181.345 49.563 181.41 49.5839C181.476 49.6048 181.538 49.6398 181.591 49.687Z" fill="#D58282"/>
<path id="Vector_19" d="M171.319 56.4706C171.319 56.4706 171.024 55.2432 171.445 52.6877C171.531 52.17 171.661 51.6625 171.833 51.1718L172.775 48.4503C172.952 47.9231 173.268 47.4664 173.681 47.1391C174.094 46.8117 174.587 46.6286 175.095 46.6133H175.159C175.561 46.6179 175.957 46.7267 176.315 46.9309C176.672 47.1351 176.982 47.4292 177.218 47.7894C177.455 48.1497 177.612 48.5662 177.676 49.0057C177.741 49.4451 177.712 49.8952 177.592 50.32C177.176 51.8086 176.551 54.1301 176.305 55.4282C176.305 55.4282 179.697 58.0055 179.567 62.232L171.319 56.4706Z" fill="#E49292"/>
<path id="Vector_20" d="M185.744 70.9661L183.872 74.0251L182.779 75.8022L167.905 100.078C165.746 103.35 162.558 105.609 158.968 106.411L141.243 110.33L140.505 102.614L139.118 88.2803L138.426 81.2044L150.049 79.2993L153.013 78.8122L162.388 62.3226L163.47 60.4175L165.632 56.6074C165.632 56.6074 175.54 59.3589 185.744 70.9661Z" fill="#293156"/>
<path id="Vector_21" d="M183.872 74.0247L182.779 75.8019C179.336 72.0217 171.098 63.9415 162.388 62.325L163.47 60.4199C172.288 62.393 180.263 70.0677 183.872 74.0247Z" fill="#E1A149"/>
<path id="Vector_22" d="M150.047 79.3086C149.921 81.4858 148.866 92.7365 140.699 102.373C140.638 102.45 140.569 102.531 140.495 102.613L139.108 88.2841L138.422 81.2082L150.047 79.3086Z" fill="#242C4D"/>
<path id="Vector_23" d="M96.4643 163.563C96.7183 161.813 96.7307 160.031 96.5012 158.277C96.2647 156.372 95.4265 154.62 94.1349 153.332C92.707 151.925 91.139 150.701 89.4612 149.686L87.5401 149.552L77.6885 149.239C74.8031 157.224 79.6564 161.029 79.6564 161.029C79.2849 162.009 79.2333 163.963 79.2431 165.212C79.2406 166.236 79.5646 167.229 80.1582 168.015C80.5992 168.572 81.1706 168.983 81.8095 169.204C82.4483 169.425 83.1298 169.447 83.779 169.267C84.0231 169.65 84.3323 169.977 84.6892 170.23C86.293 171.365 88.4945 170.704 89.4735 168.834L89.5375 168.714L89.5572 168.679C89.8583 168.828 90.1802 168.92 90.5091 168.951C90.82 168.98 91.1331 168.959 91.4389 168.891C91.9999 168.757 92.5267 168.485 92.9807 168.097C93.4348 167.709 93.8048 167.213 94.0636 166.646C94.6246 166.487 95.1352 166.16 95.5394 165.702C96.0323 165.106 96.3541 164.361 96.4643 163.563Z" fill="#E49292"/>
<path id="Vector_24" d="M79.6564 161.032C79.6564 161.032 81.334 161.696 82.0399 161.982L81.7571 164.704C81.7497 164.775 81.7288 164.844 81.6956 164.906C81.6625 164.968 81.6178 165.022 81.5646 165.064C81.5115 165.105 81.4509 165.134 81.387 165.148C81.3231 165.162 81.2573 165.161 81.1938 165.144C81.0807 165.116 80.9813 165.042 80.9153 164.937C80.8492 164.832 80.8213 164.703 80.8371 164.576L81.0831 162.613C81.0831 162.613 79.7228 162.039 79.4424 161.881C79.4723 161.587 79.5445 161.301 79.6564 161.032Z" fill="#B87373"/>
<path id="Vector_25" d="M82.0301 161.981L82.3228 159.289C82.3357 159.164 82.3069 159.038 82.2417 158.934C82.1765 158.83 82.0795 158.756 81.9686 158.726C81.9043 158.709 81.8375 158.707 81.7726 158.721C81.7076 158.735 81.646 158.763 81.5919 158.805C81.5377 158.847 81.4922 158.901 81.4583 158.964C81.4245 159.027 81.4031 159.097 81.3955 159.17L81.1495 161.619L82.0301 161.981Z" fill="#B87373"/>
<path id="Vector_26" d="M84.6769 170.23C84.32 169.977 84.0109 169.65 83.7668 169.267L84.3571 163.551C84.3744 163.421 84.4337 163.302 84.5242 163.217C84.6146 163.131 84.7301 163.085 84.8491 163.086C84.8765 163.087 84.9037 163.092 84.9303 163.1C85.0424 163.132 85.1406 163.207 85.2077 163.311C85.2747 163.416 85.3063 163.543 85.2968 163.671L84.6769 170.23Z" fill="#D58282"/>
<path id="Vector_27" d="M90.4968 168.961C90.1679 168.931 89.846 168.839 89.5449 168.689L89.5252 168.725L90.0516 163.69C90.0652 163.555 90.1252 163.431 90.2191 163.344C90.313 163.257 90.4335 163.213 90.5558 163.222C90.5832 163.225 90.6103 163.231 90.637 163.238C90.7497 163.267 90.8486 163.342 90.9149 163.446C90.9812 163.551 91.0101 163.68 90.9962 163.807L90.4968 168.961Z" fill="#D58282"/>
<path id="Vector_28" d="M94.0513 166.66L94.4153 162.422C94.4266 162.293 94.4826 162.174 94.5716 162.09C94.6606 162.006 94.7756 161.963 94.8925 161.971C94.9529 161.975 95.0119 161.992 95.0661 162.022C95.1203 162.052 95.1685 162.093 95.2079 162.144C95.2474 162.195 95.2772 162.254 95.2957 162.317C95.3142 162.381 95.321 162.448 95.3156 162.515L94.9368 166.222C94.6819 166.452 94.3763 166.603 94.0513 166.66Z" fill="#D58282"/>
<path id="Vector_29" d="M90.7945 151.254L77.7476 155.856L71.4726 140.381L83.6561 133.988L90.7945 151.254Z" fill="#D4A18F"/>
<path id="Vector_30" d="M92.0293 151.469C87.5869 155.733 82.0547 157.913 78.0255 159.01C77.0976 157.361 76.6669 155.428 76.7956 153.491L71.4824 140.378L83.6634 133.988L90.4009 150.276C90.8289 150.568 91.3996 150.97 92.0293 151.469Z" fill="#D58282"/>
<path id="Vector_31" d="M93.2592 147.489C85.314 157.303 72.7222 158.802 72.7222 158.802L71.2463 155.607L70.3435 153.669L61.4537 134.461C59.4899 130.709 58.8247 126.295 59.5818 122.04C59.5818 121.972 59.6039 121.915 59.6113 121.847C60.2385 118.7 61.623 115.799 63.6184 113.451L76.7317 97.865C78.7419 95.4768 81.0775 93.4511 83.6536 91.8614C83.7077 91.8342 83.752 91.8015 83.8061 91.777C84.0029 91.6518 84.2071 91.5239 84.4137 91.415C84.5416 91.3416 84.6769 91.2572 84.822 91.181C85.2008 90.9714 85.587 90.7782 85.9757 90.585C86.2217 90.4516 86.4898 90.3346 86.7554 90.2257C86.8096 90.1985 86.8612 90.1659 86.9227 90.1414C87.272 89.989 87.6115 89.8475 87.9607 89.7141L90.7895 88.6064L89.8327 102.758L88.4084 123.714L84.0841 127.031L90.7256 141.801L91.6357 143.823L93.2592 147.489Z" fill="#293156"/>
<path id="Vector_32" d="M84.0693 127.03L81.8284 122.237C81.7467 122.062 81.7295 121.858 81.7804 121.669C81.8313 121.48 81.9463 121.319 82.1015 121.222C82.182 121.172 82.2709 121.14 82.3629 121.128C82.4549 121.116 82.548 121.125 82.6368 121.154C82.7255 121.183 82.8082 121.232 82.8797 121.296C82.9513 121.361 83.0104 121.442 83.0534 121.532L85.2328 126.137L84.0693 127.03Z" fill="#242C4D"/>
<path id="Vector_33" d="M90.7895 88.6045L89.8302 102.756C87.2256 99.5437 85.1366 95.8619 83.6536 91.8703C83.702 91.8372 83.7521 91.8072 83.8036 91.7805C84.0029 91.6553 84.207 91.5356 84.4137 91.4213C84.544 91.345 84.6818 91.2634 84.8195 91.1872C85.2008 90.9776 85.5895 90.7817 85.9781 90.5939C86.2241 90.4606 86.4922 90.3408 86.753 90.2265L86.9202 90.1503C87.2671 90.0006 87.6164 89.8537 87.9632 89.7149L90.7895 88.6045Z" fill="#242C4D"/>
<path id="Vector_34" d="M88.0739 123.956L92.5631 121.006C92.6523 120.948 92.7514 120.91 92.8543 120.896C92.9571 120.881 93.0616 120.89 93.1613 120.921C93.261 120.953 93.3538 121.007 93.4341 121.079C93.5143 121.152 93.5804 121.242 93.6282 121.344C93.717 121.534 93.737 121.755 93.684 121.961C93.631 122.168 93.509 122.344 93.3428 122.454L87.8992 126.063L88.0739 123.956Z" fill="#242C4D"/>
<path id="Vector_35" d="M91.616 143.823C85.9289 150.667 76.6579 154.097 71.2438 155.607L70.341 153.669C75.6174 152.235 85.3214 148.771 90.7059 141.801L91.616 143.823Z" fill="#E1A149"/>
<path id="Vector_36" d="M148.354 78.8945C148.354 78.8945 147.862 95.1746 134.609 105.794C123.313 114.843 108.043 115.556 96.5652 106.793C91.8915 103.219 87.4639 97.8335 84.7162 89.7071L85.5723 89.2117C85.9363 89.0022 86.3102 88.7926 86.6718 88.5831C87.24 88.2728 87.8082 87.9599 88.3937 87.6687C93.1488 85.1856 98.1383 83.2944 103.271 82.0297L105.226 81.5534H125.362L144.596 79.33L146.536 79.1041L148.354 78.8945Z" fill="#293156"/>
<path id="Vector_37" d="M146.541 79.1035C146.155 82.9871 144.116 94.9399 133.654 103.325C128.195 107.716 121.623 110.087 114.874 110.101C108.744 110.121 102.754 108.074 97.7016 104.234C92.691 100.399 88.984 95.1413 86.6718 88.5743C87.24 88.2641 87.8082 87.9511 88.3937 87.6599C90.5608 93.9003 94.0513 98.8888 98.7864 102.506C108.778 110.14 122.349 109.778 132.545 101.608C141.91 94.1099 144.106 83.2892 144.598 79.3212L146.541 79.1035Z" fill="#E1A149"/>
<path id="Vector_38" d="M142.382 62.4287C142.382 62.4287 145.826 72.9691 138.431 81.2071C138.431 81.2071 142.367 87.9292 137.836 94.1914C137.836 94.1914 143.892 102.955 134.619 108.956L130.27 107.968C130.27 107.968 125.35 101.134 130.075 94.7711C130.075 94.7711 123.778 91.2903 127.65 81.8004L125.355 81.5554V62.4287H142.382Z" fill="#A13D3D"/>
<path id="Vector_39" d="M125.867 120.291C125.424 119.08 124.752 116.671 125.421 114.445C126.801 109.854 132.747 109.938 133.984 114.581C133.999 114.633 134.011 114.685 134.023 114.736C134.405 116.362 134.325 118.078 133.795 119.651C133.003 122.101 131.121 125.723 126.806 126.512C126.71 126.529 126.611 126.52 126.519 126.486C126.426 126.451 126.342 126.393 126.274 126.315C126.207 126.237 126.157 126.143 126.129 126.039C126.101 125.936 126.096 125.826 126.115 125.72C126.304 124.688 126.386 123.635 126.361 122.582C126.319 121.792 126.151 121.017 125.867 120.291Z" fill="#A13D3D"/>
<path id="Vector_40" d="M134.847 109.75C134.848 110.427 134.667 111.089 134.327 111.653C133.987 112.216 133.504 112.655 132.939 112.915C132.373 113.175 131.751 113.243 131.151 113.111C130.55 112.979 129.999 112.653 129.566 112.175C129.133 111.696 128.838 111.086 128.718 110.422C128.599 109.757 128.66 109.069 128.894 108.443C129.128 107.817 129.525 107.283 130.034 106.906C130.542 106.53 131.141 106.329 131.753 106.329C132.573 106.329 133.36 106.689 133.94 107.331C134.52 107.972 134.847 108.842 134.847 109.75Z" fill="#E1A149"/>
<path id="Vector_41" d="M87.0531 51.165C87.0531 51.165 84.667 43.0005 86.4898 34.9394C86.4898 34.9394 85.7518 31.1946 87.8328 26.6497C89.2169 23.64 91.4278 21.1934 94.1478 19.6614C96.8677 18.1293 99.9566 17.5908 102.971 18.1232C103.421 18.2048 103.883 18.3055 104.355 18.4334C104.355 18.4334 109.521 11.9018 121.459 12.7972C124.974 13.0437 128.408 14.0681 131.559 15.8099C134.653 17.5408 138.34 20.3004 139.993 24.2057C139.993 24.2057 151.368 34.0658 143.191 54.1641L114.392 64.5466L87.0531 51.165Z" fill="#A13D3D"/>
<path id="Vector_42" d="M125.35 70.8711V81.5557C114.662 88.7786 105.211 81.5557 105.211 81.5557V70.8711H125.35Z" fill="#E49292"/>
<path id="Vector_43" d="M125.35 70.8711V76.7659C122.482 78.0804 118.736 78.9975 113.919 78.8805C110.965 78.8511 108.031 78.3412 105.211 77.3673V70.8711H125.35Z" fill="#D58282"/>
<path id="Vector_44" d="M129.546 55.7633C129.546 55.7633 136.095 45.6121 142.709 49.3242C145.767 51.0387 147.238 55.0393 146.241 58.6725C145.125 62.7548 141.302 67.3188 129.36 65.577L129.546 55.7633Z" fill="#E49292"/>
<path id="Vector_45" d="M141.664 59.6636C140.906 60.7812 139.85 61.6067 138.645 62.0231C137.019 62.6436 134.756 62.8913 131.608 62.4341L131.691 58.0579C132.698 56.6969 133.865 55.4922 135.162 54.4764C135.87 53.9212 136.646 53.4821 137.467 53.1728C140.889 51.9535 143.762 56.4359 141.664 59.6636Z" fill="#D58282"/>
<path id="Vector_46" d="M139.639 60.8584C139.357 61.2915 139.027 61.6829 138.655 62.0232C137.029 62.6437 134.766 62.8914 131.618 62.4342L131.701 58.058C132.707 56.697 133.875 55.4923 135.172 54.4765C135.268 54.4357 135.364 54.4003 135.46 54.3649C138.872 53.1538 141.74 57.628 139.639 60.8584Z" fill="#B87373"/>
<path id="Vector_47" d="M98.233 55.7633C98.233 55.7633 91.6874 45.6121 85.068 49.3242C82.0129 51.0387 80.5419 55.0393 81.5357 58.6725C82.6549 62.7548 86.4775 67.3188 98.4199 65.577L98.233 55.7633Z" fill="#E49292"/>
<path id="Vector_48" d="M86.1183 59.6636C86.8755 60.7812 87.9315 61.6067 89.1365 62.0231C90.7625 62.6436 93.023 62.8913 96.1741 62.4341L96.0904 58.0579C95.0835 56.6976 93.9162 55.4931 92.6196 54.4764C91.911 53.9217 91.1339 53.4827 90.3123 53.1728C86.8907 51.9535 84.0201 56.4359 86.1183 59.6636Z" fill="#D58282"/>
<path id="Vector_49" d="M88.1403 60.8584C88.4216 61.2919 88.7523 61.6834 89.1242 62.0232C90.7502 62.6437 93.0108 62.8914 96.1618 62.4342L96.0782 58.058C95.0712 56.6978 93.9039 55.4932 92.6073 54.4765C92.509 54.4357 92.413 54.4003 92.3171 54.3649C88.9102 53.1538 86.0519 57.628 88.1403 60.8584Z" fill="#B87373"/>
<path id="Vector_50" d="M134.459 33.5262L134.439 34.3835L134.225 48.6632L134.004 63.6315C133.979 64.9569 133.713 66.2632 133.22 67.4717C132.728 68.6802 132.02 69.7661 131.138 70.6639C128.29 73.5459 122.986 76.9778 113.89 76.7628C104.754 76.5478 99.5785 72.8438 96.8579 69.8202C96.021 68.8844 95.3636 67.7712 94.9252 66.5473C94.4869 65.3234 94.2766 64.0141 94.3071 62.698L94.6072 42.3575L94.6957 36.2804V36.196C94.6957 36.1225 94.6957 36.011 94.708 35.8558L94.7892 31.3218C102.287 29.7678 120.086 27.9308 134.459 33.5262Z" fill="#E49292"/>
<path id="Vector_51" d="M134.459 33.5263L134.442 34.3863L134.287 44.4967C126.762 44.6491 123.023 41.1874 123.023 41.1874L123.001 41.2364C122.649 41.8948 122.163 42.4538 121.583 42.8694C121.002 43.285 120.343 43.5458 119.656 43.6313C109.883 44.8886 103.667 35.2681 103.667 35.2681C96.5332 37.3283 94.6933 44.0286 94.5851 44.445L94.6121 42.3685L94.6982 36.286V36.2098C94.6982 36.1335 94.6982 36.022 94.7154 35.8696L94.7966 31.3355C102.287 29.7679 120.084 27.9309 134.459 33.5263Z" fill="#D58282"/>
<path id="Vector_52" d="M94.6072 42.3657C94.6072 42.3657 96.3291 34.8598 104.491 32.2961C104.491 32.2961 109.064 40.6294 117.843 41.5139C119.889 41.7207 121.756 40.0606 121.872 37.7908C121.872 37.7609 121.872 37.7282 121.872 37.6983C121.872 37.6684 126.078 41.8132 134.454 42.3575V28.75H94.3046L94.6072 42.3657Z" fill="#A13D3D"/>
<path id="Vector_53" d="M132.186 45.8115C131.682 47.4444 129.665 48.1929 127.677 47.4444C125.689 46.696 124.479 44.761 124.993 43.1145C125.507 41.468 127.515 40.7332 129.502 41.4816C131.49 42.23 132.69 44.1623 132.186 45.8115Z" fill="#293156"/>
<path id="Vector_54" d="M117.139 55.579C117.164 57.3235 115.703 58.7659 113.873 58.7985C112.042 58.8312 110.537 57.4378 110.51 55.7014C110.483 53.9651 111.946 52.5146 113.777 52.4792C115.607 52.4438 117.112 53.8345 117.139 55.579Z" fill="#293156"/>
<path id="Vector_55" d="M117.311 56.8555C117.277 58.6054 115.835 59.9906 114.099 59.9498C112.362 59.909 110.975 58.4584 111.009 56.7085C111.044 54.9586 112.485 53.5733 114.207 53.6142C115.929 53.655 117.346 55.1055 117.311 56.8555Z" fill="#B87373"/>
<path id="Vector_56" d="M116.239 56.4937C116.214 57.7075 115.169 58.6709 113.9 58.6355C112.63 58.6001 111.624 57.5986 111.646 56.3875C111.669 55.1765 112.716 54.2103 113.983 54.243C115.25 54.2756 116.261 55.2799 116.239 56.4937Z" fill="#C07D7D"/>
<path id="Vector_57" d="M107.9 68.5313C108.469 68.9246 109.061 69.2773 109.671 69.5872C113.72 71.612 117.006 70.6377 119.112 69.3886C119.358 69.2498 119.587 69.1028 119.796 68.9531C121.488 67.7693 121.914 65.1784 120.568 63.5264C120.548 63.5122 120.532 63.4925 120.521 63.4693C120.087 62.9732 119.529 62.6322 118.918 62.4901C118.308 62.348 117.673 62.4113 117.095 62.6719C114.419 63.7795 111.794 63.2162 110.306 62.7046C109.776 62.5217 109.21 62.5027 108.671 62.6494C108.132 62.7962 107.639 63.1032 107.246 63.5373C107.072 63.7384 106.924 63.9645 106.805 64.2095C106.761 64.3157 106.714 64.43 106.668 64.5334C106.415 65.2537 106.401 66.0494 106.626 66.7806C106.851 67.5117 107.303 68.1316 107.9 68.5313Z" fill="#293156"/>
<path id="Vector_58" d="M109.666 69.5854C113.715 71.6102 117.001 70.6359 119.107 69.3867C118.817 67.4817 116.736 66.091 114.261 66.1917C111.88 66.2924 109.949 67.7647 109.666 69.5854Z" fill="#A13D3D"/>
<path id="Vector_59" d="M120.243 63.1928C119.026 65.7674 115.744 67.1961 112.227 66.4749C110.32 66.1219 108.569 65.091 107.238 63.5384C107.63 63.1023 108.123 62.7938 108.663 62.647C109.202 62.5001 109.768 62.5204 110.298 62.7057C111.787 63.2228 114.411 63.7752 117.09 62.6676C117.611 62.4422 118.177 62.3721 118.73 62.4642C119.283 62.5564 119.805 62.8076 120.243 63.1928Z" fill="white"/>
<path id="Vector_60" d="M129.187 54.6259C129.187 57.4889 127.325 59.8103 125.025 59.8103C122.725 59.8103 120.866 57.4889 120.866 54.6259C120.866 51.7629 122.728 49.4414 125.025 49.4414C127.323 49.4414 129.187 51.7629 129.187 54.6259Z" fill="#293156"/>
<path id="Vector_61" d="M125.598 53.0945C125.598 53.4788 125.495 53.8545 125.302 54.1741C125.109 54.4936 124.835 54.7427 124.514 54.8898C124.193 55.0368 123.84 55.0753 123.5 55.0003C123.159 54.9254 122.846 54.7403 122.6 54.4685C122.355 54.1968 122.187 53.8505 122.12 53.4736C122.052 53.0967 122.087 52.706 122.22 52.3509C122.352 51.9958 122.578 51.6924 122.866 51.4788C123.155 51.2653 123.495 51.1514 123.842 51.1514C124.073 51.151 124.301 51.201 124.515 51.2986C124.728 51.3961 124.922 51.5392 125.085 51.7197C125.248 51.9002 125.377 52.1146 125.465 52.3505C125.554 52.5864 125.599 52.8392 125.598 53.0945Z" fill="white"/>
<path id="Vector_62" d="M96.0117 45.8115C96.5037 47.4444 98.5355 48.1929 100.521 47.4444C102.506 46.696 103.718 44.761 103.207 43.1145C102.695 41.468 100.683 40.7332 98.6979 41.4816C96.7128 42.23 95.5099 44.1623 96.0117 45.8115Z" fill="#293156"/>
<path id="Vector_63" d="M103.172 59.8103C105.471 59.8103 107.334 57.4892 107.334 54.6259C107.334 51.7626 105.471 49.4414 103.172 49.4414C100.874 49.4414 99.0103 51.7626 99.0103 54.6259C99.0103 57.4892 100.874 59.8103 103.172 59.8103Z" fill="#293156"/>
<path id="Vector_64" d="M102.599 53.0945C102.599 53.4788 102.702 53.8545 102.895 54.1741C103.088 54.4936 103.362 54.7427 103.683 54.8898C104.004 55.0368 104.357 55.0753 104.698 55.0003C105.039 54.9254 105.352 54.7403 105.597 54.4685C105.843 54.1968 106.01 53.8505 106.078 53.4736C106.146 53.0967 106.111 52.706 105.978 52.3509C105.845 51.9958 105.62 51.6924 105.331 51.4788C105.042 51.2653 104.703 51.1514 104.355 51.1514C103.89 51.1514 103.443 51.3561 103.114 51.7205C102.784 52.0849 102.599 52.5792 102.599 53.0945Z" fill="white"/>
<path id="Vector_65" d="M114.507 4.03906L110.571 18.2589C109.656 21.5574 115.845 26.5731 124.408 29.477C132.971 32.3808 140.643 32.0733 141.56 28.7748L145.496 14.555L114.507 4.03906Z" fill="#293156"/>
<path id="Vector_66" d="M114.507 4.03906L113.11 9.08745L125.655 18.082C126.172 18.4575 126.734 18.7507 127.325 18.9529C127.917 19.1532 128.532 19.2586 129.15 19.2659L144.104 19.5952L145.503 14.5468L114.507 4.03906Z" fill="#242A48"/>
<path id="Vector_67" d="M143.612 21.339L141.548 28.7714C140.638 32.0753 132.958 32.3801 124.396 29.4736C116.556 26.8174 110.709 22.3976 110.485 19.1318C114.025 23.4862 120.607 26.42 128.144 26.42C134.331 26.4173 139.87 24.4469 143.612 21.339Z" fill="#242C4D"/>
<path id="Vector_68" d="M133.689 1.46423L152.959 15.2759C153.224 15.4704 153.425 15.7546 153.533 16.0861C153.64 16.4175 153.648 16.7784 153.554 17.115C153.461 17.4516 153.272 17.7459 153.016 17.9539C152.759 18.162 152.448 18.2727 152.13 18.2695L129.173 17.7579C128.185 17.7353 127.222 17.4083 126.393 16.8135L107.13 2.99372C106.865 2.79914 106.664 2.51496 106.556 2.18353C106.449 1.8521 106.442 1.49119 106.535 1.15458C106.628 0.817981 106.817 0.52372 107.074 0.315667C107.33 0.107614 107.641 -0.0030875 107.959 6.55329e-05L130.912 0.508987C131.9 0.534006 132.862 0.864936 133.689 1.46423Z" fill="#293156"/>
<path id="Vector_69" d="M130.046 9.13867L137.462 14.7531C138.106 15.2411 138.592 15.9439 138.85 16.759C139.107 17.5741 139.123 18.4589 138.894 19.2844L137.492 24.3383" stroke="#E2A149" stroke-width="4.45" stroke-linecap="round" stroke-linejoin="round"/>
<path id="Vector_70" d="M139.164 26.0285C139.327 25.3754 139.494 24.069 138.444 23.4676C138.023 23.23 137.534 23.185 137.083 23.3424C136.758 23.4582 136.461 23.6541 136.214 23.9152C135.967 24.1763 135.776 24.4959 135.657 24.8501C135.464 25.3509 135.371 25.8922 135.386 26.4364C135.401 26.9806 135.523 27.5147 135.743 28.0016C136.049 28.6644 136.541 29.2 137.145 29.5284C137.223 29.5729 137.311 29.5901 137.398 29.5775C137.485 29.565 137.566 29.5234 137.631 29.4583C137.696 29.3932 137.742 29.3077 137.762 29.2132C137.782 29.1188 137.775 29.0198 137.743 28.9297C137.669 28.7071 137.628 28.4727 137.622 28.2357C137.81 28.4801 138.043 28.6774 138.305 28.8144C138.567 28.9514 138.852 29.0251 139.142 29.0303C139.195 29.0283 139.247 29.0108 139.292 28.9796C139.337 28.9485 139.374 28.9049 139.399 28.853C139.424 28.8012 139.436 28.743 139.434 28.6843C139.432 28.6256 139.416 28.5685 139.388 28.5187C139.212 28.198 139.098 27.8403 139.054 27.4682C138.999 26.985 139.037 26.4946 139.164 26.0285Z" fill="#E1A149"/>
<path id="Vector_71" d="M222.634 109.731H170.795C169.108 109.731 167.74 111.245 167.74 113.112V141.415C167.74 143.282 169.108 144.795 170.795 144.795H222.634C224.321 144.795 225.689 143.282 225.689 141.415V113.112C225.689 111.245 224.321 109.731 222.634 109.731Z" fill="#CCAD9E"/>
<path id="Vector_72" d="M177.385 114.892L216.081 114.976C216.491 114.977 216.885 115.158 217.175 115.479C217.465 115.801 217.628 116.236 217.628 116.691L217.586 137.918C217.586 138.143 217.545 138.366 217.467 138.573C217.389 138.781 217.275 138.969 217.131 139.128C216.987 139.287 216.816 139.412 216.629 139.498C216.441 139.584 216.239 139.628 216.036 139.627L211.011 139.614H209.845L177.338 139.54C177.135 139.54 176.934 139.496 176.746 139.41C176.558 139.323 176.388 139.197 176.244 139.038C176.101 138.878 175.987 138.689 175.91 138.481C175.832 138.273 175.793 138.051 175.794 137.826L175.826 116.598C175.828 116.143 175.994 115.708 176.286 115.388C176.579 115.068 176.974 114.889 177.385 114.892Z" fill="white"/>
<path id="Vector_73" d="M177.388 114.897L216.081 114.982C216.49 114.983 216.882 115.164 217.171 115.485C217.461 115.806 217.623 116.241 217.623 116.694V119.989L175.835 119.897V116.604C175.836 116.379 175.876 116.156 175.954 115.949C176.033 115.741 176.147 115.553 176.291 115.394C176.436 115.236 176.607 115.11 176.795 115.025C176.983 114.94 177.184 114.896 177.388 114.897Z" fill="#485489"/>
<path id="Vector_74" d="M178.609 124.45L178.597 131.785C178.595 132.693 179.259 133.43 180.08 133.432L186.709 133.446C187.529 133.448 188.196 132.713 188.197 131.805L188.21 124.471C188.212 123.563 187.548 122.826 186.727 122.824L180.098 122.81C179.277 122.808 178.611 123.543 178.609 124.45Z" fill="#9BA4CE"/>
<path id="Vector_75" d="M181.668 127.62L180.826 130.614C180.805 130.69 180.798 130.77 180.806 130.849C180.815 130.928 180.838 131.005 180.876 131.073C180.913 131.141 180.963 131.2 181.022 131.245C181.082 131.29 181.149 131.321 181.22 131.335H181.252C181.338 131.346 181.424 131.331 181.503 131.293C181.582 131.255 181.651 131.194 181.702 131.117L183.134 129.054L181.668 127.62Z" fill="white"/>
<path id="Vector_76" d="M182.944 126.207L185.65 125.276C185.719 125.253 185.791 125.245 185.863 125.255C185.934 125.265 186.003 125.291 186.064 125.332C186.126 125.373 186.179 125.428 186.22 125.494C186.261 125.559 186.289 125.634 186.302 125.712C186.302 125.712 186.302 125.734 186.302 125.747C186.311 125.842 186.298 125.938 186.264 126.025C186.229 126.113 186.175 126.189 186.105 126.245L184.241 127.829L182.944 126.207Z" fill="white"/>
<path id="Vector_77" d="M185.266 130.82L185.038 131.754C185.025 131.805 185.025 131.858 185.038 131.909C185.051 131.96 185.077 132.006 185.111 132.042C185.139 132.07 185.171 132.091 185.206 132.104C185.241 132.117 185.278 132.122 185.315 132.119C185.351 132.115 185.387 132.103 185.419 132.083C185.452 132.064 185.48 132.037 185.502 132.004L186.117 131.128L185.549 130.499L185.266 130.82Z" fill="white"/>
<path id="Vector_78" d="M185.837 130.192L186.678 129.936C186.725 129.922 186.774 129.922 186.82 129.937C186.866 129.951 186.908 129.979 186.941 130.018C186.966 130.047 186.985 130.083 186.997 130.121C187.009 130.16 187.014 130.2 187.01 130.241C187.007 130.281 186.996 130.321 186.979 130.356C186.961 130.392 186.936 130.423 186.907 130.448L186.115 131.128L185.547 130.499L185.837 130.192Z" fill="white"/>
<path id="Vector_79" d="M179.833 124.987C179.774 125.303 179.791 125.63 179.884 125.935C180.01 126.333 180.241 126.68 180.548 126.931L185.83 131.372L186.076 131.1L186.322 130.828L182.319 124.971C182.095 124.629 181.781 124.371 181.419 124.234C181.144 124.132 180.85 124.112 180.566 124.176C180.385 124.217 180.219 124.315 180.089 124.46C179.958 124.604 179.869 124.787 179.833 124.987Z" fill="white"/>
<path id="Vector_80" d="M214.784 123.373C214.784 123.245 214.738 123.122 214.656 123.031C214.574 122.94 214.462 122.889 214.346 122.889L190.707 122.829C190.591 122.829 190.48 122.88 190.398 122.971C190.316 123.062 190.27 123.185 190.27 123.314C190.269 123.377 190.28 123.44 190.302 123.499C190.324 123.558 190.356 123.612 190.397 123.657C190.438 123.702 190.486 123.738 190.54 123.762C190.593 123.786 190.65 123.798 190.707 123.798L214.344 123.858C214.402 123.858 214.459 123.846 214.512 123.822C214.566 123.798 214.614 123.762 214.655 123.717C214.696 123.672 214.728 123.618 214.751 123.559C214.773 123.5 214.784 123.437 214.784 123.373Z" fill="#C2C8E2"/>
<path id="Vector_81" d="M214.772 129.815C214.772 129.751 214.761 129.688 214.739 129.63C214.718 129.571 214.686 129.517 214.645 129.472C214.605 129.427 214.557 129.392 214.504 129.367C214.451 129.343 214.394 129.33 214.337 129.33L190.698 129.271C190.64 129.27 190.583 129.282 190.529 129.307C190.476 129.331 190.427 129.366 190.386 129.411C190.346 129.456 190.313 129.51 190.291 129.569C190.269 129.628 190.257 129.691 190.257 129.755C190.257 129.883 190.303 130.007 190.386 130.097C190.468 130.188 190.579 130.239 190.695 130.239L214.334 130.299C214.45 130.299 214.562 130.248 214.644 130.157C214.726 130.067 214.772 129.943 214.772 129.815Z" fill="#C2C8E2"/>
<path id="Vector_82" d="M214.779 126.591C214.779 126.462 214.733 126.339 214.651 126.247C214.569 126.156 214.458 126.105 214.341 126.104L190.703 126.044C190.586 126.044 190.475 126.095 190.392 126.186C190.31 126.276 190.263 126.4 190.262 126.528C190.262 126.657 190.308 126.781 190.39 126.872C190.472 126.963 190.584 127.015 190.7 127.016L214.339 127.075C214.455 127.075 214.567 127.024 214.649 126.934C214.732 126.843 214.779 126.72 214.779 126.591Z" fill="#C2C8E2"/>
<path id="Vector_83" d="M214.762 136.236C214.762 136.108 214.716 135.985 214.634 135.894C214.552 135.803 214.44 135.752 214.324 135.752L178.807 135.673C178.691 135.673 178.579 135.724 178.497 135.815C178.415 135.906 178.369 136.029 178.369 136.157C178.369 136.221 178.38 136.284 178.401 136.343C178.423 136.402 178.455 136.455 178.496 136.501C178.536 136.546 178.584 136.582 178.637 136.607C178.69 136.631 178.747 136.644 178.804 136.644L214.322 136.721C214.379 136.721 214.437 136.709 214.49 136.685C214.543 136.66 214.592 136.625 214.633 136.58C214.674 136.535 214.706 136.481 214.729 136.422C214.751 136.363 214.762 136.3 214.762 136.236Z" fill="#9BA4CE"/>
<path id="Vector_84" d="M214.767 133.022C214.767 132.959 214.756 132.895 214.734 132.836C214.713 132.777 214.68 132.723 214.64 132.678C214.599 132.633 214.551 132.597 214.497 132.572C214.444 132.548 214.387 132.535 214.329 132.535L190.698 132.459C190.64 132.458 190.582 132.47 190.529 132.494C190.475 132.518 190.427 132.554 190.386 132.599C190.345 132.644 190.312 132.698 190.29 132.757C190.268 132.816 190.257 132.879 190.257 132.943C190.257 133.072 190.303 133.195 190.386 133.286C190.468 133.377 190.579 133.428 190.695 133.428L214.327 133.507C214.443 133.507 214.555 133.456 214.637 133.365C214.72 133.274 214.766 133.151 214.767 133.022Z" fill="#C2C8E2"/>
<path id="Vector_85" d="M214.762 136.236C214.762 136.108 214.716 135.985 214.634 135.894C214.552 135.803 214.44 135.752 214.324 135.752L178.807 135.673C178.691 135.673 178.579 135.724 178.497 135.815C178.415 135.906 178.369 136.029 178.369 136.157C178.369 136.221 178.38 136.284 178.401 136.343C178.423 136.402 178.455 136.455 178.496 136.501C178.536 136.546 178.584 136.582 178.637 136.607C178.69 136.631 178.747 136.644 178.804 136.644L214.322 136.721C214.379 136.721 214.437 136.709 214.49 136.685C214.543 136.66 214.592 136.625 214.633 136.58C214.674 136.535 214.706 136.481 214.729 136.422C214.751 136.363 214.762 136.3 214.762 136.236Z" fill="#C2C8E2"/>
<path id="Vector_86" d="M70.1861 49.7783H41.0347C38.9019 49.7783 37.1728 51.6913 37.1728 54.0511V86.3036C37.1728 88.6634 38.9019 90.5764 41.0347 90.5764H70.1861C72.319 90.5764 74.048 88.6634 74.048 86.3036V54.0511C74.048 51.6913 72.319 49.7783 70.1861 49.7783Z" fill="white"/>
<path id="Vector_87" d="M74.0455 85.3247L82.6549 78.6706C82.7489 78.5975 82.8195 78.4932 82.8563 78.3728C82.8932 78.2524 82.8945 78.1221 82.8599 78.0009C82.8254 77.8796 82.7569 77.7737 82.6643 77.6984C82.5717 77.6231 82.4599 77.5823 82.345 77.582H74.0455V85.3247Z" fill="white"/>
<path id="Vector_88" d="M45.888 58.9445C45.886 58.2091 46.1277 57.4983 46.5674 56.9466C47.007 56.395 47.6142 56.0407 48.274 55.9509L62.7451 53.9832C62.8848 53.9626 63.0269 53.9754 63.1618 54.0207C63.2966 54.0661 63.4211 54.143 63.5268 54.2462C63.6324 54.3494 63.7168 54.4766 63.7742 54.619C63.8316 54.7615 63.8607 54.9159 63.8594 55.0718V58.9337L45.888 58.9445Z" fill="#F3D7C8"/>
<path id="Vector_89" d="M63.092 56.4688H48.1289C46.8913 56.4688 45.888 57.5788 45.888 58.948V82.8292C45.888 84.1985 46.8913 85.3085 48.1289 85.3085H63.092C64.3296 85.3085 65.3329 84.1985 65.3329 82.8292V58.948C65.3329 57.5788 64.3296 56.4688 63.092 56.4688Z" fill="#53806E"/>
<path id="Vector_90" d="M61.9998 56.4688L45.8855 74.1422V68.3018L56.6767 56.4688H61.9998Z" fill="#5E907D"/>
<path id="Vector_91" d="M65.3329 64.6963V75.0952L56.02 85.3062H48.1264C47.6899 85.3089 47.2623 85.1698 46.8965 84.9062L65.3329 64.6963Z" fill="#5E907D"/>
<path id="Vector_92" d="M55.6092 60.1758C56.6615 60.1758 57.6902 60.521 58.5651 61.1679C59.4401 61.8147 60.1221 62.734 60.5248 63.8097C60.9275 64.8853 61.0328 66.0689 60.8275 67.2108C60.6222 68.3527 60.1155 69.4016 59.3714 70.2249C58.6273 71.0481 57.6793 71.6088 56.6472 71.8359C55.6151 72.063 54.5453 71.9465 53.5731 71.5009C52.6009 71.0554 51.7699 70.3009 51.1853 69.3328C50.6006 68.3648 50.2886 67.2267 50.2886 66.0624C50.2892 64.5014 50.85 63.0045 51.8477 61.9007C52.8453 60.7969 54.1983 60.1765 55.6092 60.1758Z" stroke="white" stroke-width="2.16" stroke-miterlimit="10"/>
<path id="Vector_93" d="M55.6092 60.1758C57.2277 60.1758 58.5413 62.8129 58.5413 66.0624C58.5413 69.3119 57.2277 71.949 55.6092 71.949C53.9906 71.949 52.6771 69.3146 52.6771 66.0624C52.6771 62.8102 53.9906 60.1758 55.6092 60.1758Z" stroke="white" stroke-width="2.16" stroke-miterlimit="10"/>
<path id="Vector_94" d="M55.6092 60.1758V71.949" stroke="white" stroke-width="2.16" stroke-miterlimit="10"/>
<path id="Vector_95" d="M50.2886 66.0625H60.9298" stroke="white" stroke-width="2.16" stroke-miterlimit="10"/>
<path id="Vector_96" d="M184.494 27.9367C185.946 27.9367 187.124 26.6342 187.124 25.0275C187.124 23.4207 185.946 22.1182 184.494 22.1182C183.042 22.1182 181.864 23.4207 181.864 25.0275C181.864 26.6342 183.042 27.9367 184.494 27.9367Z" fill="white"/>
<path id="Vector_97" d="M198.54 25.0382C198.54 25.6137 198.385 26.1763 198.096 26.6548C197.807 27.1333 197.396 27.5062 196.916 27.7263C196.435 27.9464 195.906 28.0039 195.396 27.8914C194.886 27.7789 194.417 27.5016 194.05 27.0944C193.682 26.6873 193.432 26.1686 193.331 25.6041C193.229 25.0396 193.282 24.4545 193.481 23.923C193.681 23.3914 194.018 22.9372 194.451 22.6179C194.884 22.2985 195.392 22.1284 195.912 22.1289C196.609 22.1296 197.278 22.4365 197.77 22.982C198.263 23.5275 198.54 24.2671 198.54 25.0382Z" fill="white"/>
<path id="Vector_98" d="M209.958 25.0383C209.956 25.6129 209.8 26.174 209.511 26.6508C209.221 27.1277 208.81 27.4988 208.33 27.7176C207.849 27.9364 207.321 27.9929 206.812 27.8801C206.303 27.7673 205.835 27.4902 205.468 27.0837C205.101 26.6772 204.851 26.1595 204.75 25.596C204.648 25.0325 204.7 24.4484 204.898 23.9173C205.096 23.3862 205.432 22.9319 205.863 22.6117C206.294 22.2915 206.802 22.1198 207.321 22.1182C207.668 22.1175 208.011 22.1925 208.332 22.339C208.652 22.4856 208.943 22.7007 209.188 22.972C209.433 23.2434 209.627 23.5656 209.759 23.9202C209.891 24.2748 209.959 24.6548 209.958 25.0383Z" fill="white"/>
<path id="Vector_99" d="M221.374 25.0382C221.374 25.6136 221.22 26.1761 220.931 26.6545C220.642 27.1329 220.231 27.5058 219.751 27.726C219.27 27.9462 218.742 28.0038 218.232 27.8916C217.721 27.7793 217.253 27.5022 216.885 27.0954C216.517 26.6885 216.267 26.1701 216.165 25.6058C216.064 25.0414 216.116 24.4565 216.315 23.9249C216.514 23.3933 216.851 22.9389 217.284 22.6192C217.716 22.2995 218.224 22.1289 218.745 22.1289C219.442 22.1289 220.111 22.4354 220.604 22.981C221.097 23.5266 221.374 24.2666 221.374 25.0382Z" fill="#ECCBB8"/>
<path id="Vector_100" d="M14.8829 170.563C15.1156 168.977 14.1422 167.482 12.7087 167.225C11.2752 166.967 9.92448 168.044 9.69179 169.63C9.4591 171.216 10.4325 172.711 11.866 172.968C13.2995 173.226 14.6503 172.149 14.8829 170.563Z" fill="#ECCBB8"/>
<path id="Vector_101" d="M26.3373 170.093C26.3373 170.475 26.2693 170.853 26.1371 171.206C26.005 171.559 25.8113 171.88 25.5671 172.15C25.323 172.42 25.0331 172.635 24.714 172.781C24.395 172.927 24.0531 173.002 23.7078 173.002C23.3624 173.002 23.0205 172.927 22.7015 172.781C22.3824 172.635 22.0926 172.42 21.8484 172.15C21.6042 171.88 21.4105 171.559 21.2784 171.206C21.1462 170.853 21.0782 170.475 21.0782 170.093C21.0789 169.322 21.3562 168.583 21.8493 168.038C22.3423 167.493 23.0108 167.187 23.7078 167.187C24.4047 167.187 25.0732 167.493 25.5663 168.038C26.0593 168.583 26.3367 169.322 26.3373 170.093Z" fill="#ECCBB8"/>
<path id="Vector_102" d="M37.7184 170.563C37.9511 168.977 36.9776 167.482 35.5441 167.225C34.1106 166.967 32.7599 168.044 32.5272 169.63C32.2945 171.216 33.268 172.711 34.7015 172.968C36.135 173.226 37.4857 172.149 37.7184 170.563Z" fill="#ECCBB8"/>
<path id="Vector_103" d="M49.1359 170.563C49.3686 168.977 48.3952 167.482 46.9617 167.225C45.5282 166.967 44.1774 168.044 43.9448 169.63C43.7121 171.216 44.6855 172.711 46.119 172.968C47.5525 173.226 48.9032 172.149 49.1359 170.563Z" fill="#ECCBB8"/>
<path id="Vector_104" d="M36.8653 101.124H4.62692C2.07154 101.124 0 103.416 0 106.243V141.911C0 144.738 2.07154 147.03 4.62692 147.03H36.8653C39.4207 147.03 41.4923 144.738 41.4923 141.911V106.243C41.4923 103.416 39.4207 101.124 36.8653 101.124Z" fill="#E2A149"/>
<path id="Vector_105" d="M41.4947 106.24V108.316H6.60206e-07V106.242C-0.000324297 105.57 0.119313 104.904 0.352061 104.282C0.584809 103.661 0.926091 103.096 1.35636 102.621C1.78663 102.146 2.29743 101.769 2.85949 101.512C3.42155 101.256 4.02384 101.125 4.63184 101.126H36.8555C37.4638 101.124 38.0666 101.255 38.6292 101.511C39.1918 101.767 39.7032 102.143 40.1342 102.618C40.5651 103.093 40.9071 103.657 41.1406 104.279C41.3741 104.9 41.4944 105.567 41.4947 106.24Z" fill="#C88830"/>
<path id="Vector_106" d="M37.987 104.717L38.6118 104.026C38.6674 103.965 38.7115 103.892 38.7415 103.812C38.7716 103.732 38.7871 103.646 38.7871 103.559C38.7871 103.472 38.7716 103.387 38.7415 103.306C38.7115 103.226 38.6674 103.154 38.6118 103.092C38.5565 103.031 38.4908 102.982 38.4184 102.949C38.346 102.916 38.2683 102.898 38.19 102.898C38.1116 102.898 38.0339 102.916 37.9615 102.949C37.8891 102.982 37.8234 103.031 37.7681 103.092L37.1408 103.784L36.516 103.092C36.4607 103.031 36.395 102.982 36.3226 102.949C36.2502 102.916 36.1726 102.898 36.0942 102.898C36.0158 102.898 35.9382 102.916 35.8658 102.949C35.7934 102.982 35.7276 103.031 35.6723 103.092C35.6168 103.154 35.5727 103.226 35.5426 103.306C35.5125 103.387 35.497 103.472 35.497 103.559C35.497 103.646 35.5125 103.732 35.5426 103.812C35.5727 103.892 35.6168 103.965 35.6723 104.026L36.2971 104.717L35.6723 105.411C35.6168 105.472 35.5727 105.545 35.5426 105.625C35.5125 105.705 35.497 105.791 35.497 105.878C35.497 105.965 35.5125 106.05 35.5426 106.131C35.5727 106.211 35.6168 106.283 35.6723 106.345C35.7276 106.406 35.7934 106.455 35.8658 106.488C35.9382 106.521 36.0158 106.539 36.0942 106.539C36.1726 106.539 36.2502 106.521 36.3226 106.488C36.395 106.455 36.4607 106.406 36.516 106.345L37.1408 105.653L37.7681 106.345C37.8234 106.406 37.8891 106.455 37.9615 106.488C38.0339 106.521 38.1116 106.539 38.19 106.539C38.2683 106.539 38.346 106.521 38.4184 106.488C38.4908 106.455 38.5565 106.406 38.6118 106.345C38.6674 106.283 38.7115 106.211 38.7415 106.131C38.7716 106.05 38.7871 105.965 38.7871 105.878C38.7871 105.791 38.7716 105.705 38.7415 105.625C38.7115 105.545 38.6674 105.472 38.6118 105.411L37.987 104.717Z" fill="white"/>
<path id="Vector_107" d="M36.334 120.23C36.2086 119.932 36.0211 119.671 35.7867 119.468C35.5524 119.266 35.278 119.128 34.986 119.066C34.2854 118.94 33.5712 118.94 32.8706 119.066L31.9285 118.891C30.6985 118.665 29.4362 118.808 28.2732 119.305L23.971 121.147L23.3166 121.515L21.8604 120.908C21.9284 120.805 21.9853 120.693 22.0302 120.576C22.0999 120.384 22.1343 120.178 22.1313 119.971C22.1284 119.764 22.0881 119.56 22.0129 119.37C21.94 119.18 21.8335 119.007 21.6996 118.863C21.5657 118.719 21.4071 118.605 21.2332 118.529C21.0595 118.453 20.8739 118.414 20.6869 118.417C20.4999 118.42 20.3152 118.464 20.1435 118.546L18.306 119.419L13.7086 117.498C12.9283 117.174 12.0684 117.174 11.2881 117.498L10.6978 117.743C10.4904 117.828 10.3082 117.975 10.1711 118.167C10.034 118.359 9.94729 118.589 9.92046 118.831C9.89248 119.075 9.92566 119.322 10.0164 119.546C10.1071 119.769 10.2518 119.961 10.4346 120.1L16.9998 125.096L16.9728 125.113L12.7911 127.753L6.8875 126.171C6.50458 126.068 6.1003 126.131 5.75845 126.348C5.54081 126.485 5.35666 126.678 5.22204 126.912C5.08741 127.145 5.00641 127.411 4.98606 127.687C4.96467 127.964 5.00457 128.242 5.1023 128.498C5.20003 128.753 5.35264 128.979 5.5469 129.154L8.09282 131.459C8.03156 131.709 8.03044 131.973 8.08955 132.223C8.14866 132.474 8.26596 132.703 8.42981 132.888C8.69922 133.175 9.0596 133.333 9.43342 133.329C9.56872 133.329 9.70344 133.309 9.83437 133.272L19.6909 130.36C21.0383 129.963 22.3578 129.458 23.6389 128.849L34.6417 123.616C35.1393 123.389 35.5829 123.038 35.938 122.59C36.0743 122.416 36.1938 122.228 36.2947 122.026C36.4304 121.752 36.5048 121.446 36.5117 121.134C36.5185 120.821 36.4576 120.511 36.334 120.23Z" fill="white"/>
<path id="Vector_108" d="M20.0795 128.999L18.0895 138.334C18.0442 138.546 18.043 138.767 18.086 138.981C18.1289 139.194 18.2149 139.393 18.3374 139.565C18.46 139.736 18.616 139.874 18.7937 139.969C18.9714 140.064 19.1663 140.114 19.3637 140.114H20.1287C20.6969 140.114 21.2533 139.935 21.7326 139.597C22.212 139.26 22.5942 138.778 22.8345 138.208L27.7714 126.457L20.0795 128.999Z" fill="white"/>
<path id="Vector_109" d="M26.7063 133.469L23.725 134.506C23.3945 134.621 23.0366 134.586 22.7295 134.409C22.4225 134.232 22.1913 133.927 22.0867 133.562C22.0353 133.381 22.0166 133.19 22.0317 133.001C22.0469 132.812 22.0956 132.628 22.1751 132.459C22.2546 132.291 22.3634 132.142 22.4951 132.02C22.6268 131.898 22.7789 131.806 22.9428 131.749L25.9216 130.713C26.252 130.598 26.61 130.633 26.917 130.81C27.2241 130.987 27.4552 131.292 27.5598 131.657C27.6632 132.022 27.6314 132.419 27.4715 132.758C27.3115 133.098 27.0363 133.354 26.7063 133.469Z" fill="white"/>
<path id="Vector_110" d="M200.456 89.791H191.551C191.267 89.791 190.994 89.916 190.793 90.1386C190.592 90.3611 190.479 90.6629 190.479 90.9776C190.479 91.2923 190.592 91.5941 190.793 91.8166C190.994 92.0392 191.267 92.1642 191.551 92.1642H200.456C200.74 92.1642 201.013 92.0392 201.214 91.8166C201.415 91.5941 201.528 91.2923 201.528 90.9776C201.528 90.6629 201.415 90.3611 201.214 90.1386C201.013 89.916 200.74 89.791 200.456 89.791Z" fill="#C8A99A"/>
<path id="Vector_111" d="M196.471 93.7129H191.551C191.267 93.7129 190.994 93.8379 190.793 94.0604C190.592 94.283 190.479 94.5848 190.479 94.8995C190.479 95.2142 190.592 95.516 190.793 95.7385C190.994 95.961 191.267 96.086 191.551 96.086H196.471C196.755 96.086 197.028 95.961 197.229 95.7385C197.43 95.516 197.543 95.2142 197.543 94.8995C197.543 94.5848 197.43 94.283 197.229 94.0604C197.028 93.8379 196.755 93.7129 196.471 93.7129Z" fill="#C8A99A"/>
<path id="Vector_112" d="M15.6543 68.8018H6.74729C6.46285 68.8018 6.19006 68.9268 5.98893 69.1493C5.7878 69.3718 5.67481 69.6736 5.67481 69.9883C5.67546 70.3028 5.78866 70.6042 5.98965 70.8266C6.19064 71.0489 6.46305 71.1742 6.74729 71.1749H15.6543C15.9385 71.1742 16.211 71.0489 16.4119 70.8266C16.6129 70.6042 16.7261 70.3028 16.7268 69.9883C16.7268 69.6736 16.6138 69.3718 16.4127 69.1493C16.2115 68.9268 15.9387 68.8018 15.6543 68.8018Z" fill="#C8A99A"/>
<path id="Vector_113" d="M11.6669 72.7207H6.74729C6.46305 72.7214 6.19064 72.8467 5.98965 73.069C5.78866 73.2914 5.67546 73.5928 5.67481 73.9073C5.67481 74.222 5.7878 74.5238 5.98893 74.7463C6.19006 74.9688 6.46285 75.0939 6.74729 75.0939H11.6669C11.9514 75.0939 12.2242 74.9688 12.4253 74.7463C12.6264 74.5238 12.7394 74.222 12.7394 73.9073C12.7388 73.5928 12.6256 73.2914 12.4246 73.069C12.2236 72.8467 11.9512 72.7214 11.6669 72.7207Z" fill="#C8A99A"/>
<path id="Vector_114" d="M57.5524 147.029H48.6454C48.3612 147.03 48.0888 147.155 47.8878 147.378C47.6868 147.6 47.5736 147.901 47.5729 148.216C47.5723 148.372 47.5995 148.527 47.6531 148.672C47.7067 148.817 47.7855 148.948 47.8852 149.059C47.9848 149.17 48.1032 149.259 48.2337 149.319C48.3641 149.379 48.504 149.41 48.6454 149.411H57.5524C57.8369 149.411 58.1097 149.286 58.3108 149.063C58.5119 148.841 58.6249 148.539 58.6249 148.224C58.6249 147.909 58.5119 147.608 58.3108 147.385C58.1097 147.162 57.8369 147.037 57.5524 147.037V147.029Z" fill="#C8A99A"/>
<path id="Vector_115" d="M53.5651 150.95H48.6454C48.3618 150.95 48.0898 151.075 47.8888 151.296C47.6878 151.517 47.5742 151.818 47.5729 152.131C47.5729 152.446 47.6859 152.748 47.8871 152.971C48.0882 153.193 48.361 153.318 48.6454 153.318H53.5651C53.7101 153.326 53.855 153.301 53.991 153.245C54.127 153.189 54.2513 153.103 54.3564 152.992C54.4615 152.881 54.5451 152.748 54.6023 152.6C54.6594 152.452 54.6889 152.293 54.6889 152.133C54.6889 151.972 54.6594 151.813 54.6023 151.666C54.5451 151.518 54.4615 151.385 54.3564 151.274C54.2513 151.163 54.127 151.077 53.991 151.021C53.855 150.965 53.7101 150.94 53.5651 150.948V150.95Z" fill="#C8A99A"/>
<path id="Vector_116" d="M26.7137 18.0049H5.27386C2.36119 18.0049 0 20.6173 0 23.8398V47.5604C0 50.7829 2.36119 53.3953 5.27386 53.3953H26.7137C29.6263 53.3953 31.9875 50.7829 31.9875 47.5604V23.8398C31.9875 20.6173 29.6263 18.0049 26.7137 18.0049Z" fill="#AA4444"/>
<path id="Vector_117" d="M23.8037 37.3857V37.3503C24.6298 35.8101 25.0657 34.0521 25.0656 32.2611C25.0649 29.5975 24.1081 27.0431 22.4055 25.1599C20.7029 23.2767 18.3939 22.2188 15.9864 22.2188C14.7942 22.2184 13.6136 22.4779 12.5121 22.9824C11.4106 23.4869 10.4097 24.2266 9.56657 25.1591C8.72346 26.0917 8.05465 27.1989 7.59834 28.4174C7.14204 29.636 6.90718 30.9421 6.90718 32.2611C6.90743 34.0517 7.3424 35.8093 8.16661 37.3503V37.3857L8.28222 37.5762C8.388 37.7667 8.50115 37.9518 8.61922 38.1341L14.9656 48.5874C15.0787 48.7682 15.2298 48.9159 15.4059 49.0179C15.582 49.1199 15.7778 49.1732 15.9765 49.1732C16.1753 49.1732 16.3711 49.1199 16.5472 49.0179C16.7232 48.9159 16.8743 48.7682 16.9875 48.5874L23.3314 38.1341C23.4519 37.9518 23.5626 37.764 23.6709 37.5735L23.8037 37.3857Z" fill="white"/>
<path id="Vector_118" d="M19.2653 32.1274C19.2653 33.0874 18.9206 34.0081 18.3071 34.6869C17.6936 35.3657 16.8614 35.747 15.9937 35.747C15.564 35.7474 15.1385 35.654 14.7414 35.4722C14.3443 35.2904 13.9835 35.0238 13.6797 34.6877C13.3758 34.3515 13.1349 33.9523 12.9706 33.513C12.8063 33.0737 12.7219 32.6028 12.7222 32.1274C12.7222 31.1674 13.0669 30.2468 13.6804 29.568C14.2939 28.8892 15.1261 28.5078 15.9937 28.5078C16.8612 28.5085 17.693 28.8901 18.3064 29.5688C18.9198 30.2474 19.2647 31.1677 19.2653 32.1274Z" fill="#293156"/>
<path id="Vector_119" d="M161.905 180.34H70.0336C69.7793 180.34 69.5357 180.228 69.3559 180.029C69.1762 179.83 69.0749 179.56 69.0742 179.279C69.0742 178.997 69.1752 178.727 69.3551 178.527C69.5349 178.328 69.7789 178.216 70.0336 178.215H161.905C162.161 178.215 162.405 178.327 162.586 178.527C162.766 178.726 162.867 178.997 162.867 179.279C162.867 179.561 162.765 179.831 162.585 180.03C162.404 180.229 162.16 180.34 161.905 180.34Z" fill="#293156"/>
</g>
</svg>
