<svg width="208" height="180" viewBox="0 0 208 180" fill="none" xmlns="http://www.w3.org/2000/svg">
<g id="OBJECTS">
<path id="Vector" d="M193.511 179.725H8.72301C8.34832 179.722 7.98969 179.556 7.72514 179.263C7.46059 178.969 7.31154 178.572 7.31042 178.157C7.31042 177.74 7.46015 177.34 7.72666 177.045C7.99317 176.751 8.35464 176.585 8.73154 176.585H193.52C193.897 176.585 194.258 176.751 194.525 177.045C194.791 177.34 194.941 177.74 194.941 178.157C194.94 178.364 194.903 178.569 194.831 178.76C194.759 178.951 194.653 179.124 194.52 179.269C194.387 179.415 194.23 179.53 194.057 179.608C193.884 179.686 193.698 179.726 193.511 179.725Z" fill="#212D57"/>
<path id="Vector_2" d="M190.294 10.2363H8.32615C3.72774 10.2363 0 14.3606 0 19.4482V151.427C0 156.515 3.72774 160.639 8.32615 160.639H190.294C194.892 160.639 198.62 156.515 198.62 151.427V19.4482C198.62 14.3606 194.892 10.2363 190.294 10.2363Z" fill="#F5C9B6"/>
<path id="Vector_3" d="M206.387 40.2334H193.016C192.603 40.2569 192.214 40.455 191.93 40.7867C191.645 41.1183 191.486 41.5583 191.486 42.0158C191.486 42.4733 191.645 42.9133 191.93 43.245C192.214 43.5767 192.603 43.7747 193.016 43.7982H206.387C206.8 43.7747 207.189 43.5767 207.474 43.245C207.758 42.9133 207.917 42.4733 207.917 42.0158C207.917 41.5583 207.758 41.1183 207.474 40.7867C207.189 40.455 206.8 40.2569 206.387 40.2334Z" fill="#D8AF9F"/>
<path id="Vector_4" d="M200.404 46.1211H193.016C192.59 46.1211 192.18 46.3086 191.879 46.6425C191.577 46.9763 191.407 47.4291 191.407 47.9012C191.407 48.3733 191.577 48.826 191.879 49.1598C192.18 49.4937 192.59 49.6812 193.016 49.6812H200.404C200.83 49.6812 201.24 49.4937 201.541 49.1598C201.843 48.826 202.013 48.3733 202.013 47.9012C202.013 47.4291 201.843 46.9763 201.541 46.6425C201.24 46.3086 200.83 46.1211 200.404 46.1211Z" fill="#D8AF9F"/>
<path id="Vector_5" d="M106.328 16.0107H92.9575C92.5308 16.0107 92.1216 16.1983 91.8199 16.5321C91.5181 16.8659 91.3486 17.3187 91.3486 17.7908C91.3486 18.2629 91.5181 18.7157 91.8199 19.0495C92.1216 19.3833 92.5308 19.5709 92.9575 19.5709H106.328C106.755 19.5709 107.164 19.3833 107.466 19.0495C107.767 18.7157 107.937 18.2629 107.937 17.7908C107.937 17.3187 107.767 16.8659 107.466 16.5321C107.164 16.1983 106.755 16.0107 106.328 16.0107Z" fill="#D8AF9F"/>
<path id="Vector_6" d="M100.345 21.8945H92.9575C92.5446 21.9181 92.1556 22.1161 91.8708 22.4478C91.5861 22.7795 91.4273 23.2195 91.4273 23.6769C91.4273 24.1344 91.5861 24.5744 91.8708 24.9061C92.1556 25.2378 92.5446 25.4358 92.9575 25.4594H100.345C100.758 25.4358 101.147 25.2378 101.431 24.9061C101.716 24.5744 101.875 24.1344 101.875 23.6769C101.875 23.2195 101.716 22.7795 101.431 22.4478C101.147 22.1161 100.758 21.9181 100.345 21.8945Z" fill="#D8AF9F"/>
<path id="Vector_7" d="M78.5756 143.425H65.2051C64.7784 143.425 64.3692 143.612 64.0674 143.946C63.7657 144.28 63.5962 144.733 63.5962 145.205C63.5962 145.677 63.7657 146.13 64.0674 146.464C64.3692 146.797 64.7784 146.985 65.2051 146.985H78.5756C79.0023 146.985 79.4115 146.797 79.7132 146.464C80.015 146.13 80.1845 145.677 80.1845 145.205C80.1845 144.733 80.015 144.28 79.7132 143.946C79.4115 143.612 79.0023 143.425 78.5756 143.425Z" fill="#D8AF9F"/>
<path id="Vector_8" d="M72.5881 149.312H65.2051C64.7784 149.312 64.3692 149.499 64.0674 149.833C63.7657 150.167 63.5962 150.619 63.5962 151.092C63.5962 151.564 63.7657 152.016 64.0674 152.35C64.3692 152.684 64.7784 152.872 65.2051 152.872H72.5881C73.0148 152.872 73.424 152.684 73.7257 152.35C74.0275 152.016 74.197 151.564 74.197 151.092C74.197 150.619 74.0275 150.167 73.7257 149.833C73.424 149.499 73.0148 149.312 72.5881 149.312Z" fill="#D8AF9F"/>
<path id="Vector_9" d="M81.2813 24.0801H14.3435C13.297 24.0801 12.4487 25.0187 12.4487 26.1765V133.188C12.4487 134.345 13.297 135.284 14.3435 135.284H81.2813C82.3278 135.284 83.1761 134.345 83.1761 133.188V26.1765C83.1761 25.0187 82.3278 24.0801 81.2813 24.0801Z" fill="white"/>
<path id="Vector_10" d="M36.9534 33.6504H21.8929C21.0869 33.6504 20.4334 34.3734 20.4334 35.2652V51.9278C20.4334 52.8197 21.0869 53.5426 21.8929 53.5426H36.9534C37.7595 53.5426 38.4129 52.8197 38.4129 51.9278V35.2652C38.4129 34.3734 37.7595 33.6504 36.9534 33.6504Z" fill="#E8DCD3"/>
<path id="Vector_11" d="M74.3549 35.5029H43.1458C42.9194 35.5029 42.7023 35.4034 42.5422 35.2263C42.3822 35.0492 42.2922 34.809 42.2922 34.5586C42.2922 34.3081 42.3822 34.0679 42.5422 33.8908C42.7023 33.7137 42.9194 33.6143 43.1458 33.6143H74.3549C74.5813 33.6143 74.7984 33.7137 74.9585 33.8908C75.1185 34.0679 75.2085 34.3081 75.2085 34.5586C75.2085 34.809 75.1185 35.0492 74.9585 35.2263C74.7984 35.4034 74.5813 35.5029 74.3549 35.5029Z" fill="#F2EFED"/>
<path id="Vector_12" d="M74.3549 51.6934H43.1458C42.9194 51.6934 42.7023 51.7928 42.5422 51.9699C42.3822 52.147 42.2922 52.3872 42.2922 52.6377C42.2922 52.8881 42.3822 53.1283 42.5422 53.3054C42.7023 53.4825 42.9194 53.582 43.1458 53.582H74.3549C74.5813 53.582 74.7984 53.4825 74.9585 53.3054C75.1185 53.1283 75.2085 52.8881 75.2085 52.6377C75.2085 52.3872 75.1185 52.147 74.9585 51.9699C74.7984 51.7928 74.5813 51.6934 74.3549 51.6934Z" fill="#F2EFED"/>
<path id="Vector_13" d="M74.3549 44.5342H43.1458C42.9194 44.5342 42.7023 44.4347 42.5422 44.2576C42.3822 44.0805 42.2922 43.8403 42.2922 43.5898C42.2922 43.3394 42.3822 43.0992 42.5422 42.9221C42.7023 42.745 42.9194 42.6455 43.1458 42.6455H74.3549C74.5813 42.6455 74.7984 42.745 74.9585 42.9221C75.1185 43.0992 75.2085 43.3394 75.2085 43.5898C75.2085 43.8403 75.1185 44.0805 74.9585 44.2576C74.7984 44.4347 74.5813 44.5342 74.3549 44.5342Z" fill="#F2EFED"/>
<path id="Vector_14" d="M74.3549 60.7148H21.2698C21.0435 60.7148 20.8264 60.8143 20.6663 60.9914C20.5062 61.1685 20.4163 61.4087 20.4163 61.6592C20.4163 61.9096 20.5062 62.1498 20.6663 62.3269C20.8264 62.504 21.0435 62.6035 21.2698 62.6035H74.3549C74.5813 62.6035 74.7984 62.504 74.9584 62.3269C75.1185 62.1498 75.2084 61.9096 75.2084 61.6592C75.2084 61.4087 75.1185 61.1685 74.9584 60.9914C74.7984 60.8143 74.5813 60.7148 74.3549 60.7148Z" fill="#F2EFED"/>
<path id="Vector_15" d="M74.3549 69.7334H21.2698C21.0435 69.7334 20.8264 69.8329 20.6663 70.01C20.5062 70.1871 20.4163 70.4273 20.4163 70.6777C20.4163 70.9282 20.5062 71.1684 20.6663 71.3455C20.8264 71.5226 21.0435 71.6221 21.2698 71.6221H74.3549C74.5813 71.6221 74.7984 71.5226 74.9584 71.3455C75.1185 71.1684 75.2084 70.9282 75.2084 70.6777C75.2084 70.4273 75.1185 70.1871 74.9584 70.01C74.7984 69.8329 74.5813 69.7334 74.3549 69.7334Z" fill="#F2EFED"/>
<path id="Vector_16" d="M74.3549 98.6484H21.2698C21.0435 98.6484 20.8264 98.5489 20.6663 98.3718C20.5062 98.1947 20.4163 97.9545 20.4163 97.7041C20.4163 97.4536 20.5062 97.2135 20.6663 97.0364C20.8264 96.8593 21.0435 96.7598 21.2698 96.7598H74.3549C74.5813 96.7598 74.7984 96.8593 74.9584 97.0364C75.1185 97.2135 75.2084 97.4536 75.2084 97.7041C75.2084 97.9545 75.1185 98.1947 74.9584 98.3718C74.7984 98.5489 74.5813 98.6484 74.3549 98.6484Z" fill="#F2EFED"/>
<path id="Vector_17" d="M74.3549 89.6308H21.2698C21.0435 89.6308 20.8264 89.5314 20.6663 89.3543C20.5062 89.1772 20.4163 88.937 20.4163 88.6865C20.4163 88.4361 20.5062 88.1959 20.6663 88.0188C20.8264 87.8417 21.0435 87.7422 21.2698 87.7422H74.3549C74.5813 87.7422 74.7984 87.8417 74.9584 88.0188C75.1185 88.1959 75.2084 88.4361 75.2084 88.6865C75.2084 88.937 75.1185 89.1772 74.9584 89.3543C74.7984 89.5314 74.5813 89.6308 74.3549 89.6308Z" fill="#F2EFED"/>
<path id="Vector_18" d="M74.3549 78.7559H21.2698C21.0435 78.7559 20.8264 78.8553 20.6663 79.0324C20.5062 79.2095 20.4163 79.4497 20.4163 79.7002C20.4163 79.9506 20.5062 80.1908 20.6663 80.3679C20.8264 80.545 21.0435 80.6445 21.2698 80.6445H74.3549C74.5813 80.6445 74.7984 80.545 74.9584 80.3679C75.1185 80.1908 75.2084 79.9506 75.2084 79.7002C75.2084 79.4497 75.1185 79.2095 74.9584 79.0324C74.7984 78.8553 74.5813 78.7559 74.3549 78.7559Z" fill="#F2EFED"/>
<path id="Vector_19" d="M52.5473 125.714H21.2698C21.0435 125.714 20.8264 125.614 20.6663 125.437C20.5062 125.26 20.4163 125.02 20.4163 124.77C20.4163 124.519 20.5062 124.279 20.6663 124.102C20.8264 123.925 21.0435 123.825 21.2698 123.825H52.5473C52.7737 123.825 52.9908 123.925 53.1508 124.102C53.3109 124.279 53.4008 124.519 53.4008 124.77C53.4008 125.02 53.3109 125.26 53.1508 125.437C52.9908 125.614 52.7737 125.714 52.5473 125.714Z" fill="#F2EFED"/>
<path id="Vector_20" d="M52.5473 105.816H21.2698C21.0435 105.816 20.8264 105.916 20.6663 106.093C20.5062 106.27 20.4163 106.51 20.4163 106.761C20.4163 107.011 20.5062 107.251 20.6663 107.428C20.8264 107.606 21.0435 107.705 21.2698 107.705H52.5473C52.7737 107.705 52.9908 107.606 53.1508 107.428C53.3109 107.251 53.4008 107.011 53.4008 106.761C53.4008 106.51 53.3109 106.27 53.1508 106.093C52.9908 105.916 52.7737 105.816 52.5473 105.816Z" fill="#F2EFED"/>
<path id="Vector_21" d="M52.5473 116.69H21.2698C21.0435 116.69 20.8264 116.591 20.6663 116.414C20.5062 116.237 20.4163 115.997 20.4163 115.746C20.4163 115.496 20.5062 115.255 20.6663 115.078C20.8264 114.901 21.0435 114.802 21.2698 114.802H52.5473C52.7737 114.802 52.9908 114.901 53.1508 115.078C53.3109 115.255 53.4008 115.496 53.4008 115.746C53.4008 115.997 53.3109 116.237 53.1508 116.414C52.9908 116.591 52.7737 116.69 52.5473 116.69Z" fill="#F2EFED"/>
<path id="Vector_22" d="M24.2145 49.7279C24.1276 49.7233 24.0453 49.683 23.9838 49.6149C23.9222 49.5469 23.8858 49.4558 23.8817 49.3596C23.8749 49.308 23.8749 49.2555 23.8817 49.2038L27.6286 37.9238C27.6613 37.7886 27.7315 37.6681 27.8292 37.5792C27.9492 37.4716 28.102 37.4192 28.256 37.4328H30.5946C30.7486 37.4192 30.9014 37.4716 31.0214 37.5792C31.1177 37.6695 31.1875 37.7895 31.222 37.9238L34.9348 49.1991C34.9571 49.2473 34.9688 49.3007 34.969 49.3549C34.9686 49.4034 34.9589 49.4512 34.9405 49.4951C34.9221 49.5391 34.8955 49.5782 34.8623 49.6099C34.8309 49.6461 34.7931 49.6749 34.7512 49.6943C34.7094 49.7138 34.6644 49.7236 34.619 49.7232H32.6644C32.6007 49.7287 32.5367 49.7203 32.4759 49.6984C32.4151 49.6766 32.3588 49.6417 32.3102 49.5957C32.2434 49.5291 32.1909 49.4469 32.1566 49.3549L31.5378 47.5654H27.3L26.6983 49.3549C26.6644 49.4448 26.6151 49.5265 26.5532 49.5957C26.5007 49.6438 26.4401 49.6799 26.3749 49.7018C26.3097 49.7237 26.2412 49.731 26.1734 49.7232L24.2145 49.7279ZM27.9444 45.0393H30.8977L29.4082 40.4027L27.9444 45.0393Z" fill="white"/>
<path id="Vector_23" d="M73.7318 105.816H58.6714C57.8653 105.816 57.2119 106.539 57.2119 107.431V124.094C57.2119 124.986 57.8653 125.709 58.6714 125.709H73.7318C74.5379 125.709 75.1914 124.986 75.1914 124.094V107.431C75.1914 106.539 74.5379 105.816 73.7318 105.816Z" fill="#E8DCD3"/>
<path id="Vector_24" d="M62.0257 121.912C61.9723 121.914 61.9192 121.903 61.8699 121.88C61.8206 121.858 61.7762 121.823 61.7398 121.78C61.6677 121.698 61.6278 121.588 61.6288 121.473V119.75C61.6237 119.609 61.6548 119.47 61.7185 119.349C61.7599 119.267 61.81 119.191 61.8678 119.122L66.989 112.233H62.1751C62.1237 112.235 62.0726 112.225 62.0249 112.203C61.9772 112.182 61.9339 112.151 61.8977 112.11C61.8579 112.071 61.8265 112.022 61.8059 111.967C61.7852 111.912 61.7758 111.853 61.7782 111.794V110.056C61.7766 109.997 61.7865 109.938 61.8071 109.884C61.8277 109.829 61.8586 109.78 61.8977 109.74C61.9719 109.66 62.0716 109.616 62.1751 109.617H70.1769C70.2856 109.615 70.3909 109.659 70.4714 109.74C70.5093 109.781 70.5391 109.83 70.5589 109.885C70.5788 109.939 70.5882 109.998 70.5866 110.056V111.761C70.5896 111.876 70.5707 111.99 70.5311 112.096C70.4952 112.192 70.4447 112.279 70.3817 112.356L65.4142 119.259H70.3647C70.4779 119.259 70.5864 119.309 70.6664 119.397C70.7465 119.486 70.7914 119.606 70.7914 119.731V121.497C70.7936 121.556 70.784 121.615 70.7634 121.67C70.7427 121.724 70.7115 121.773 70.6719 121.813C70.5915 121.894 70.4862 121.938 70.3775 121.936L62.0257 121.912Z" fill="white"/>
<path id="Vector_25" d="M115.619 92.3086L114.095 93.0168C112.656 93.6885 111.354 94.6756 110.268 95.9188C109.183 97.162 108.336 98.6354 107.779 100.25L99.6449 123.759C99.6449 123.759 105.842 133.028 114.189 135.049L115.619 92.3086Z" fill="#FAA63F"/>
<path id="Vector_26" d="M114.189 135.049L114.966 111.804C114.97 111.691 114.953 111.578 114.917 111.472C114.88 111.367 114.825 111.27 114.754 111.188C114.683 111.107 114.598 111.042 114.504 110.998C114.41 110.953 114.308 110.931 114.206 110.931C114.011 110.93 113.822 111.013 113.68 111.161C113.538 111.31 113.453 111.513 113.442 111.729L112.298 134.459C112.914 134.709 113.546 134.906 114.189 135.049Z" fill="#D48C35"/>
<path id="Vector_27" d="M181.972 176.58H112.802L115.619 92.3082L129.919 84.1492L152.333 81.9111L176.825 92.6009L181.972 176.58Z" fill="#FAA63F"/>
<path id="Vector_28" d="M181.972 176.579H112.802L113.455 157.065C123.202 164.341 135.805 167.892 149.047 166.036C161.619 164.275 172.519 157.943 180.282 148.981L181.972 176.579Z" fill="#EB9C3B"/>
<path id="Vector_29" d="M194.113 166.419L163.523 165.337L159.332 145.61L182.522 145.53L180.388 139.076L172.976 116.601L189.85 106.388L198.261 126.138L205.294 142.664C206.38 145.163 207.051 147.858 207.275 150.62C207.275 150.856 207.309 151.092 207.321 151.338C207.701 159.582 201.581 166.419 194.113 166.419Z" fill="#FF9090"/>
<path id="Vector_30" d="M198.261 126.138C194.198 130.359 188.096 135.652 180.41 139.076L172.997 116.601L189.85 106.388L198.261 126.138Z" fill="#ED8383"/>
<path id="Vector_31" d="M163.702 171.306C163.44 171.539 163.106 171.649 162.771 171.612C162.437 171.575 162.129 171.394 161.914 171.108L142.364 143.59C142.152 143.301 142.052 142.931 142.085 142.561C142.118 142.191 142.281 141.85 142.539 141.611C142.8 141.376 143.135 141.264 143.471 141.301C143.807 141.337 144.116 141.518 144.331 141.805L163.881 169.323C164.093 169.613 164.194 169.984 164.16 170.355C164.127 170.726 163.962 171.068 163.702 171.306Z" fill="#212D57"/>
<path id="Vector_32" d="M144.254 140.7L141.34 143.349L142.765 145.266L143.132 145.766L143.802 146.673C143.961 146.887 144.191 147.023 144.44 147.05C144.69 147.078 144.939 146.995 145.134 146.819L146.585 145.502C146.778 145.326 146.901 145.072 146.926 144.795C146.951 144.519 146.876 144.244 146.717 144.029L145.676 142.612L144.254 140.69V140.7Z" fill="#415390"/>
<path id="Vector_33" d="M144.254 140.7L145.676 142.622L146.047 143.122C145.154 144.105 144.178 144.99 143.132 145.766L142.765 145.266L141.34 143.349L144.254 140.7Z" fill="#38487D"/>
<path id="Vector_34" opacity="0.2" d="M125.98 139.783C124.51 137.801 123.605 135.38 123.378 132.828C123.151 130.276 123.614 127.706 124.707 125.445C125.801 123.184 127.475 121.332 129.52 120.124C131.565 118.916 133.887 118.405 136.194 118.658C138.5 118.91 140.688 119.913 142.479 121.541C144.27 123.169 145.585 125.348 146.257 127.802C146.929 130.257 146.927 132.876 146.254 135.33C145.58 137.784 144.263 139.961 142.471 141.587C140.066 143.762 136.98 144.793 133.889 144.455C130.798 144.117 127.954 142.437 125.98 139.783Z" fill="white"/>
<path id="Vector_35" opacity="0.25" d="M139.739 143.439L141.754 120.931C142.635 121.61 143.426 122.422 144.105 123.343L144.335 123.664L142.756 141.328L142.471 141.602C141.641 142.351 140.722 142.969 139.739 143.439Z" fill="white"/>
<path id="Vector_36" opacity="0.25" d="M126.796 140.775L128.592 120.742C130.453 119.378 132.63 118.637 134.861 118.607L132.591 144.227C130.399 143.717 128.387 142.519 126.796 140.775Z" fill="white"/>
<path id="Vector_37" d="M143.934 143.561C146.079 141.615 147.653 139.009 148.459 136.073C149.265 133.136 149.265 130.002 148.461 127.065C147.657 124.129 146.083 121.522 143.94 119.575C141.797 117.627 139.179 116.427 136.419 116.125C133.659 115.823 130.88 116.434 128.434 117.879C125.988 119.325 123.984 121.541 122.675 124.246C121.367 126.952 120.813 130.026 121.084 133.08C121.355 136.134 122.438 139.03 124.197 141.403C126.556 144.584 129.96 146.599 133.662 147.003C137.363 147.408 141.058 146.17 143.934 143.561ZM127.611 121.534C129.403 119.909 131.591 118.907 133.897 118.657C136.204 118.407 138.526 118.919 140.569 120.128C142.613 121.338 144.286 123.191 145.378 125.453C146.47 127.715 146.931 130.284 146.703 132.836C146.475 135.388 145.568 137.807 144.098 139.789C142.627 141.771 140.658 143.225 138.44 143.969C136.222 144.713 133.854 144.712 131.636 143.967C129.419 143.222 127.45 141.766 125.98 139.784C124.012 137.123 123.079 133.707 123.384 130.286C123.69 126.865 125.21 123.717 127.611 121.534Z" fill="#415390" stroke="#415390" stroke-width="2.15" stroke-miterlimit="10"/>
<path id="Vector_38" d="M199.2 121.186C196.093 125.757 188.104 133.779 177.994 137.122L171.106 118.575C170.148 116.007 169.637 113.261 169.6 110.482C169.544 105.019 170.56 96.5819 176.825 92.6016L181.285 94.2636C184.763 95.5702 187.677 98.2635 189.457 101.818L199.2 121.186Z" fill="#FAA63F"/>
<path id="Vector_39" d="M177.994 137.122L171.106 118.575C171.106 118.575 168.887 112.205 169.924 105.118C169.959 104.857 169.905 104.591 169.773 104.371C169.64 104.151 169.439 103.993 169.207 103.928C169.074 103.889 168.935 103.881 168.799 103.906C168.663 103.93 168.533 103.987 168.419 104.071C168.304 104.156 168.207 104.266 168.134 104.395C168.061 104.525 168.014 104.67 167.995 104.821C167.701 107.319 167.304 113.32 169.314 119.189L176.612 139.119L179.629 138.307L179.522 136.574L177.994 137.122Z" fill="#D48C35"/>
<path id="Vector_40" d="M114.185 135.048L113.229 163.789C112.223 164.898 111.007 165.748 109.67 166.277C103.806 168.751 97.2465 165.186 95.0913 158.666L82.2074 117.899C82.1207 117.625 82.1047 117.33 82.1612 117.046C82.2177 116.762 82.3446 116.502 82.5274 116.294C84.5365 114.04 86.9599 112.291 89.6334 111.164C92.307 110.037 95.1682 109.56 98.0232 109.764L100.178 115.902L100.605 117.12L105.065 129.816C105.065 129.816 109.644 133.886 114.185 135.048Z" fill="#FF9090"/>
<path id="Vector_41" d="M105.043 129.831L108.359 140.219C108.402 140.356 108.471 140.481 108.561 140.586C108.651 140.691 108.76 140.774 108.881 140.829C109.002 140.884 109.132 140.91 109.263 140.905C109.394 140.9 109.522 140.864 109.64 140.799C109.846 140.688 110.007 140.496 110.092 140.26C110.177 140.025 110.18 139.762 110.101 139.525L107.412 131.668C107.412 131.668 107.169 131.503 106.827 131.252C106.211 130.812 105.616 130.338 105.043 129.831Z" fill="#CB7474"/>
<path id="Vector_42" d="M152.406 82.62C143.141 93.6214 129.919 85.0186 129.919 85.0186V73.7197L151.322 71.8311L151.885 77.4309L152.406 82.62Z" fill="#FF9393"/>
<path id="Vector_43" d="M151.885 77.4451C148.343 79.5179 143.482 81.1657 136.91 81.2885C134.57 81.3474 132.231 81.1751 129.919 80.7738V73.7197L151.322 71.8311L151.885 77.4451Z" fill="#ED8383"/>
<path id="Vector_44" d="M172.993 31.4033L173.782 54.0294L160.915 54.8604L160.117 31.951L172.993 31.4033Z" fill="#B73A3A"/>
<path id="Vector_45" d="M112.96 35.043L113.617 53.9012L106.439 50.969L105.897 35.3452L112.96 35.043Z" fill="#B73A3A"/>
<path id="Vector_46" d="M155.406 53.0572C155.406 53.0572 162.814 40.5826 170.88 44.6857C172.687 45.6379 174.137 47.258 174.979 49.2666C175.821 51.2751 176.003 53.546 175.493 55.6871C174.324 60.6212 169.946 66.2778 155.589 64.7999L155.406 53.0572Z" fill="#FF9393"/>
<path id="Vector_47" d="M170.056 57.1032C169.201 58.4798 167.972 59.5212 166.549 60.0778C164.628 60.9041 161.935 61.3149 158.15 60.9277L158.069 55.6914C159.214 54.0117 160.559 52.5108 162.067 51.2295C162.892 50.5302 163.803 49.9657 164.773 49.5533C168.81 47.9243 172.434 53.137 170.056 57.1032Z" fill="#ED8383"/>
<path id="Vector_48" d="M167.688 58.633C167.367 59.1675 166.984 59.6532 166.549 60.0779C164.628 60.9041 161.935 61.3149 158.15 60.9278L158.069 55.6915C159.214 54.0117 160.559 52.5108 162.067 51.2295L162.409 51.0832C166.45 49.4589 170.065 54.6669 167.688 58.633Z" fill="#CE7474"/>
<path id="Vector_49" d="M120.027 53.2175C120.027 53.2175 113.079 42.3578 106.004 46.2862C104.423 47.2002 103.179 48.6942 102.485 50.512C101.792 52.3298 101.691 54.358 102.201 56.2488C103.379 60.6069 107.442 65.4938 120.189 63.6901L120.027 53.2175Z" fill="#FF9393"/>
<path id="Vector_50" d="M107.083 57.325C107.887 58.5218 109.012 59.4074 110.297 59.8558C112.025 60.5262 114.441 60.8001 117.804 60.3279L117.731 55.6582C116.662 54.2015 115.42 52.9104 114.04 51.8195C113.287 51.2202 112.461 50.7432 111.586 50.403C107.937 49.1046 104.851 53.8734 107.083 57.325Z" fill="#ED8383"/>
<path id="Vector_51" d="M109.239 58.6103C109.54 59.0752 109.896 59.4943 110.297 59.8568C112.025 60.5272 114.441 60.8011 117.804 60.3289L117.731 55.6592C116.662 54.2025 115.42 52.9114 114.04 51.8205L113.732 51.7025C110.088 50.3899 107.011 55.154 109.239 58.6103Z" fill="#CE7474"/>
<path id="Vector_52" d="M161.065 62.2455C161.089 63.8324 160.823 65.4084 160.284 66.8792C159.746 68.3501 158.944 69.6856 157.928 70.8058C154.642 74.399 148.441 78.7712 137.563 78.979C126.685 79.1867 120.279 75.0128 116.903 71.5377C115.864 70.462 115.031 69.1653 114.456 67.7252C113.88 66.2851 113.573 64.7313 113.553 63.1568L113.067 38.8168L112.921 31.5408V31.4463C112.921 31.3613 112.921 31.2244 112.921 31.0403L112.828 25.6104C121.726 23.3629 142.936 20.256 160.356 26.2147V27.2488L160.54 36.371L160.693 44.3317L161.065 62.2455Z" fill="#FF9393"/>
<path id="Vector_53" d="M160.544 36.3802C148.927 35.5965 143.226 31.6586 143.226 31.6586C144.505 33.1179 146.159 34.1068 147.963 34.4916C131.319 38.3917 124.777 26.0493 124.777 26.0493C114.266 28.6557 113.067 38.8402 113.067 38.8402L112.921 31.5642V31.4698C112.921 31.3848 112.921 31.2478 112.921 31.0637L112.828 25.6338C121.726 23.3863 142.936 20.2795 160.356 26.2382V27.2722L160.54 36.3944L160.544 36.3802Z" fill="#ED8383"/>
<path id="Vector_54" d="M113.071 38.816C113.071 38.816 112.068 25.5955 125.549 23.4093C125.549 23.4093 134.008 35.152 147.963 34.4674C147.963 34.4674 141.096 32.4843 139.782 25.3877C139.782 25.3877 145.646 33.0131 160.493 33.6081H173.069C173.069 33.6081 176.829 13.7017 159.05 3.72485C154.67 1.32351 149.855 0.0529732 144.967 0.00892392C139.803 -0.0855087 132.403 0.618013 126.224 4.48031C126.224 4.48031 122.942 2.70497 117.688 4.37643C110.924 6.5295 106.046 12.9604 104.745 20.6141C103.942 25.3358 103.87 30.1235 105.978 37.4845L113.071 38.816Z" fill="#B73A3A"/>
<path id="Vector_55" d="M139.786 25.3876C140.292 28.037 141.658 30.3891 143.627 31.9979C140.503 31.7949 137.285 31.4313 134.004 30.8505C130.799 28.9648 127.935 26.4442 125.554 23.414C122.988 23.7594 120.532 24.7723 118.388 26.3697C113.72 24.4595 109.251 22.0013 105.056 19.037C106.237 13.9527 109.096 9.54228 113.071 6.67578C122.246 13.9046 141.664 24.6558 171.883 19.2023C172.93 22.4935 173.44 25.9643 173.39 29.4529C166.13 31.1316 158.742 32.0375 151.326 32.1584C143.175 29.7976 139.786 25.3876 139.786 25.3876Z" fill="#C73F3F"/>
<path id="Vector_56" d="M156.635 41.6311C156.072 43.7464 153.549 44.7804 151.002 43.9494C148.454 43.1184 146.849 40.7293 147.417 38.614C147.984 36.4987 150.502 35.4647 153.046 36.3004C155.589 37.1361 157.198 39.5205 156.635 41.6311Z" fill="#212D57"/>
<path id="Vector_57" d="M113.771 42.1077C114.364 44.0719 116.758 44.9407 119.131 44.0814C121.504 43.222 122.938 40.9084 122.344 38.9442C121.751 36.98 119.357 36.1113 116.984 36.9706C114.611 37.8299 113.178 40.1435 113.771 42.1077Z" fill="#212D57"/>
<path id="Vector_58" d="M138.024 54.804C138.135 57.009 136.346 58.9119 134.033 59.0535C131.72 59.1952 129.766 57.519 129.646 55.314C129.527 53.109 131.323 51.2014 133.637 51.0645C135.95 50.9276 137.917 52.5943 138.024 54.804Z" fill="#212D57"/>
<path id="Vector_59" d="M138.301 56.4093C138.335 58.6237 136.594 60.4557 134.375 60.4982C132.156 60.5407 130.355 58.7748 130.321 56.5604C130.286 54.3459 132.028 52.5139 134.247 52.4715C136.466 52.429 138.267 54.1948 138.301 56.4093Z" fill="#CE7474"/>
<path id="Vector_60" d="M136.927 56.0079C136.953 57.5424 135.647 58.8126 134.063 58.8409C132.48 58.8692 131.136 57.651 131.114 56.1118C131.093 54.5725 132.369 53.3071 133.978 53.2788C135.587 53.2505 136.901 54.4734 136.927 56.0079Z" fill="#D67E7E"/>
<path id="Vector_61" d="M153.229 52.9487C153.353 56.5702 151.095 59.6062 148.193 59.7337C145.291 59.8611 142.825 57.0187 142.701 53.3972C142.577 49.7757 144.835 46.735 147.737 46.6122C150.639 46.4895 153.101 49.3225 153.229 52.9487Z" fill="#212D57"/>
<path id="Vector_62" d="M148.62 51.8959C148.638 52.3821 148.524 52.8631 148.295 53.278C148.065 53.693 147.729 54.0232 147.33 54.227C146.93 54.4308 146.485 54.499 146.051 54.4229C145.617 54.3469 145.212 54.13 144.889 53.7997C144.566 53.4695 144.339 53.0407 144.237 52.5676C144.134 52.0944 144.16 51.5982 144.312 51.1417C144.465 50.6852 144.736 50.2889 145.092 50.003C145.447 49.717 145.872 49.5542 146.311 49.5351C146.9 49.5095 147.475 49.7439 147.908 50.1866C148.341 50.6293 148.597 51.2442 148.62 51.8959Z" fill="white"/>
<path id="Vector_63" d="M117.159 54.4833C117.279 57.8923 119.592 60.56 122.327 60.442C125.063 60.3239 127.184 57.4673 127.064 54.063C126.945 50.6588 124.632 47.9863 121.896 48.1044C119.161 48.2224 117.044 51.0743 117.159 54.4833Z" fill="#212D57"/>
<path id="Vector_64" d="M121.367 52.4812C121.383 52.9382 121.522 53.3797 121.765 53.7498C122.008 54.1198 122.345 54.4019 122.733 54.5603C123.12 54.7186 123.542 54.7463 123.944 54.6396C124.346 54.533 124.711 54.2969 124.992 53.9611C125.272 53.6254 125.457 53.2051 125.522 52.7533C125.587 52.3015 125.529 51.8386 125.356 51.423C125.184 51.0074 124.903 50.6578 124.551 50.4184C124.199 50.179 123.79 50.0605 123.377 50.0778C123.102 50.0888 122.832 50.1597 122.582 50.2866C122.332 50.4135 122.107 50.5937 121.921 50.8171C121.734 51.0404 121.589 51.3024 121.494 51.588C121.399 51.8736 121.356 52.1771 121.367 52.4812Z" fill="white"/>
<path id="Vector_65" d="M130.073 67.5664C130.073 67.5664 135.523 70.2341 140.862 64.79C140.862 64.79 138.224 72.8876 130.073 67.5664Z" fill="#212D57"/>
<path id="Vector_66" d="M151.761 76.1699C151.761 76.1699 156.567 76.2077 159.823 80.5091C160.803 81.8285 161.363 83.4681 161.417 85.1748C161.471 86.8815 161.016 88.5604 160.121 89.9524C157.988 93.3189 154.497 98.4182 148.624 101.705C148.135 98.9362 147.136 96.3088 145.689 93.9858C144.243 91.6627 142.381 89.6935 140.217 88.2006C140.217 88.2006 148.001 87.9598 152.333 81.8925L151.761 76.1699Z" fill="white"/>
<path id="Vector_67" d="M140.217 88.2196C140.217 88.2196 133.466 87.653 129.919 84.1495V79.0029C129.919 79.0029 125.306 79.6215 123.518 85.684C123.065 87.2333 123.181 88.9177 123.842 90.3726C125.054 93.064 127.926 97.625 134.388 101.44C134.4 101.421 134.174 94.3341 140.217 88.2196Z" fill="white"/>
<path id="Vector_68" d="M82.1903 104.821C82.1903 104.821 83.5432 97.6155 88.3741 94.4567C89.2645 93.896 90.2687 93.5939 91.2932 93.5785L93.7471 93.5077C94.1519 93.4929 94.5552 93.5693 94.9325 93.7323C95.3098 93.8954 95.6532 94.1416 95.9418 94.4561C96.2304 94.7705 96.4582 95.1466 96.6113 95.5615C96.7644 95.9764 96.8397 96.4214 96.8325 96.8695C96.8325 96.9261 96.8325 96.9875 96.8325 97.0442C96.7788 97.8743 96.444 98.6515 95.8949 99.2205C95.3459 99.7894 94.6231 100.108 93.8708 100.113C90.8536 100.151 85.4508 100.826 82.1903 104.821Z" fill="#CB7474"/>
<path id="Vector_69" d="M104.958 73.1758L108.415 86.3491L91.4468 91.6421L104.958 73.1758Z" fill="#B5B09F"/>
<path id="Vector_70" d="M88.7667 91.2318L93.3288 93.4652C93.6019 93.4227 93.875 93.3707 94.1439 93.2999L115.226 87.752C115.425 87.6994 115.632 87.6919 115.835 87.7299C116.037 87.7679 116.23 87.8507 116.402 87.9732C116.575 88.0958 116.723 88.2556 116.839 88.4432C116.954 88.6307 117.034 88.8421 117.074 89.0646L122.754 121.049C122.794 121.274 122.793 121.505 122.75 121.729C122.706 121.954 122.622 122.166 122.502 122.352C122.383 122.539 122.23 122.697 122.053 122.817C121.876 122.936 121.679 123.014 121.474 123.046L99.3035 126.309C98.4664 126.431 97.6149 126.318 96.8279 125.98C96.0409 125.641 95.3438 125.089 94.8011 124.373C94.257 123.635 93.8875 122.759 93.7257 121.823L88.8094 95.4671C88.548 94.0663 88.5393 92.6222 88.7838 91.2177L88.7667 91.2318Z" fill="#577052"/>
<path id="Vector_71" d="M88.7667 91.2314C88.72 91.4961 88.725 91.7688 88.7816 92.0312C88.8381 92.2935 88.9447 92.5394 89.0943 92.7524C89.2439 92.9653 89.433 93.1403 89.6489 93.2656C89.8647 93.391 90.1023 93.4637 90.3457 93.4789L91.4297 93.5545C92.338 93.6161 93.2496 93.5302 94.1354 93.2995L115.213 87.7516C115.408 87.6999 115.61 87.6917 115.808 87.7273C116.006 87.763 116.195 87.8419 116.365 87.9593L115.469 86.7648C115.199 86.407 114.845 86.1397 114.445 85.9929C114.046 85.8461 113.617 85.8256 113.207 85.9337L91.4425 91.6422L104.672 74.2855C104.79 74.1275 104.876 73.943 104.924 73.7447C104.971 73.5464 104.979 73.339 104.947 73.137C104.915 72.9349 104.844 72.743 104.738 72.5744C104.632 72.4059 104.495 72.2647 104.335 72.1607C104.076 71.9973 103.774 71.9389 103.48 71.9958C103.186 72.0527 102.919 72.2213 102.726 72.4724L89.1337 90.3721C88.9456 90.6187 88.8178 90.9146 88.7624 91.2314H88.7667Z" fill="#43573F"/>
<path id="Vector_72" d="M114.206 85.9232L112.525 84.5067C112.234 84.2623 111.897 84.0958 111.538 84.0205C111.18 83.9451 110.81 83.9628 110.459 84.0724L93.0173 89.5872L91.4468 91.6459L114.206 85.9232Z" fill="white"/>
<path id="Vector_73" d="M116.703 88.266L92.8465 117.21L91.7369 111.265L109.994 89.1159L115.209 87.7372C115.478 87.6662 115.759 87.6779 116.022 87.7712C116.286 87.8644 116.521 88.0355 116.703 88.266Z" fill="#63805D"/>
<path id="Vector_74" d="M120.718 109.608L108.018 125.015L99.3035 126.309C98.4045 126.441 97.49 126.3 96.6575 125.903L118.849 98.9893L120.718 109.608Z" fill="#63805D"/>
<path id="Vector_75" d="M101.139 111.389C103.558 107.219 102.683 104.519 101.685 103.088C101.655 103.036 101.617 102.989 101.587 102.942L101.48 102.805C101.202 102.436 100.874 102.117 100.507 101.86L100.451 101.832C100.494 101.696 100.53 101.557 100.558 101.417C100.582 101.322 100.601 101.226 100.614 101.129C100.787 100.101 100.602 99.0386 100.096 98.1556C99.5901 97.2725 98.8007 96.6343 97.8866 96.3691C94.5195 95.3776 90.8066 96.2605 90.3884 96.3691H90.3543C86.3598 97.1671 83.381 100.534 82.1903 104.826C80.8076 109.793 82.1903 117.768 82.1903 117.768C97.9805 120.412 100.242 115.921 100.242 115.921C101.817 114.08 101.139 111.389 101.139 111.389Z" fill="#FF9090"/>
<path id="Vector_76" d="M101.587 102.941L95.2108 103.324C95.1685 103.333 95.1251 103.333 95.0828 103.324C94.9554 103.301 94.8397 103.229 94.7566 103.12C94.6736 103.01 94.6288 102.872 94.6304 102.729C94.6314 102.575 94.6861 102.427 94.783 102.316C94.88 102.205 95.0118 102.14 95.1511 102.134L100.451 101.827L100.507 101.855C100.874 102.112 101.202 102.431 101.48 102.8L101.587 102.941Z" fill="#CB7474"/>
<path id="Vector_77" d="M101.139 111.393L95.6675 111.492C95.6058 111.493 95.5445 111.481 95.4871 111.456C95.4298 111.431 95.3774 111.394 95.333 111.346C95.2886 111.299 95.2531 111.243 95.2285 111.18C95.2038 111.117 95.1906 111.05 95.1895 110.982C95.1872 110.844 95.2343 110.71 95.3206 110.61C95.407 110.51 95.5255 110.452 95.6504 110.448L101.681 110.368C101.52 110.722 101.339 111.065 101.139 111.393Z" fill="#CB7474"/>
<path id="Vector_78" d="M100.584 117.134C97.9037 119.698 93.6446 119.755 92.1339 119.693C92.053 119.695 91.9727 119.679 91.8978 119.645C91.8229 119.612 91.7551 119.561 91.6986 119.497C91.6421 119.433 91.5982 119.357 91.5694 119.273C91.5407 119.19 91.5278 119.101 91.5317 119.011C91.5355 118.922 91.5559 118.834 91.5916 118.754C91.6273 118.674 91.6776 118.603 91.7393 118.545C91.801 118.487 91.8728 118.444 91.9502 118.418C92.0277 118.392 92.109 118.384 92.1893 118.395C96.9819 118.546 99.2181 116.955 100.157 115.916L100.584 117.134Z" fill="#CB7474"/>
<path id="Vector_79" d="M142.505 153.486C143.528 151.478 144.824 149.655 146.346 148.08C147.992 146.357 150.135 145.334 152.397 145.19C154.882 145.05 157.373 145.221 159.823 145.7L161.871 147.296L172.113 155.889C169.152 166.603 161.444 166.093 161.444 166.093C161.099 167.429 159.712 169.459 158.781 170.715C158.031 171.756 156.974 172.472 155.794 172.736C154.936 172.905 154.052 172.808 153.24 172.457C152.428 172.105 151.72 171.512 151.194 170.744C150.804 170.864 150.403 170.926 149.999 170.928C149.849 170.928 149.704 170.928 149.572 170.899C148.976 170.811 148.401 170.591 147.883 170.253C147.365 169.914 146.914 169.464 146.555 168.929C146.197 168.394 145.94 167.785 145.798 167.138C145.657 166.491 145.634 165.82 145.731 165.163V164.983V164.936C145.313 164.821 144.916 164.628 144.557 164.365C144.222 164.113 143.919 163.811 143.657 163.468C143.186 162.823 142.852 162.071 142.677 161.266C142.502 160.461 142.491 159.622 142.645 158.812C142.2 158.145 141.927 157.357 141.856 156.531C141.789 155.467 142.015 154.405 142.505 153.486Z" fill="#FF9090"/>
<path id="Vector_80" d="M161.457 166.097C161.457 166.097 159.264 165.257 158.333 164.907L156.626 167.934C156.584 168.013 156.557 168.101 156.546 168.193C156.536 168.284 156.542 168.377 156.566 168.465C156.589 168.554 156.628 168.636 156.681 168.707C156.734 168.778 156.8 168.836 156.874 168.878C157.01 168.952 157.166 168.967 157.311 168.919C157.457 168.872 157.581 168.767 157.659 168.623L158.862 166.413C158.862 166.413 160.672 167.06 161.069 167.155C161.249 166.828 161.38 166.47 161.457 166.097Z" fill="#CB7474"/>
<path id="Vector_81" d="M158.333 164.907L160.04 161.909C160.119 161.77 160.241 161.668 160.384 161.622C160.526 161.576 160.679 161.589 160.813 161.659C160.891 161.699 160.961 161.757 161.017 161.83C161.073 161.902 161.115 161.987 161.139 162.079C161.163 162.17 161.17 162.267 161.158 162.361C161.145 162.456 161.115 162.546 161.069 162.627L159.515 165.337L158.333 164.907Z" fill="#CB7474"/>
<path id="Vector_82" d="M149.563 170.899C149.708 170.899 149.854 170.923 149.99 170.928C150.394 170.926 150.796 170.864 151.185 170.744L154.795 164.412C154.881 164.26 154.911 164.078 154.879 163.902C154.847 163.727 154.756 163.571 154.625 163.468C154.595 163.445 154.564 163.426 154.531 163.411C154.394 163.339 154.239 163.324 154.093 163.37C153.948 163.416 153.823 163.52 153.741 163.661L149.563 170.899Z" fill="#CB7474"/>
<path id="Vector_83" d="M144.583 164.355C144.942 164.619 145.339 164.812 145.757 164.927V164.983L148.936 159.393C149.025 159.243 149.057 159.06 149.026 158.883C148.995 158.707 148.903 158.551 148.77 158.449C148.74 158.426 148.709 158.407 148.676 158.392C148.54 158.32 148.385 158.306 148.24 158.352C148.095 158.398 147.971 158.501 147.89 158.642L144.583 164.355Z" fill="#CB7474"/>
<path id="Vector_84" d="M142.671 158.798L145.428 154.166C145.512 154.025 145.543 153.854 145.515 153.689C145.487 153.523 145.402 153.376 145.279 153.278C145.213 153.224 145.138 153.186 145.059 153.165C144.979 153.145 144.896 153.143 144.816 153.16C144.736 153.177 144.66 153.212 144.592 153.263C144.525 153.314 144.468 153.381 144.425 153.457L142.078 157.565C142.173 158.027 142.378 158.452 142.671 158.798Z" fill="#CB7474"/>
<path id="Vector_85" d="M163.702 171.306C163.44 171.54 163.105 171.651 162.769 171.614C162.433 171.577 162.125 171.395 161.91 171.107L158.734 166.636L160.185 164.124L163.877 169.318C164.091 169.608 164.193 169.979 164.16 170.352C164.127 170.724 163.963 171.067 163.702 171.306Z" fill="#212D57"/>
<path id="Vector_86" d="M176.309 84.4891L166.813 76.9345C166.757 76.9075 166.712 76.8568 166.689 76.7935C166.666 76.7302 166.667 76.6595 166.691 76.5969C166.716 76.5343 166.762 76.4849 166.819 76.4597C166.876 76.4344 166.94 76.4354 166.997 76.4623L176.309 78.6201V84.4891Z" fill="#415390"/>
<path id="Vector_87" d="M189.743 89.2804C199.826 89.2804 208 82.6342 208 74.4356C208 66.2371 199.826 59.5908 189.743 59.5908C179.66 59.5908 171.486 66.2371 171.486 74.4356C171.486 82.6342 179.66 89.2804 189.743 89.2804Z" fill="#415390"/>
<path id="Vector_88" d="M178.395 79.2566C178.328 79.2521 178.264 79.2203 178.216 79.1672C178.168 79.1142 178.139 79.0435 178.135 78.9685C178.133 78.9261 178.133 78.8835 178.135 78.8411L181.063 70.0022C181.091 69.8987 181.144 69.8056 181.216 69.733C181.311 69.6502 181.429 69.6082 181.549 69.615H183.389C183.508 69.6081 183.625 69.6501 183.717 69.733C183.792 69.804 183.847 69.8975 183.875 70.0022L186.79 78.8411C186.807 78.8808 186.816 78.9244 186.815 78.9685C186.815 79.006 186.807 79.0429 186.794 79.077C186.78 79.1111 186.759 79.1417 186.734 79.1669C186.683 79.2232 186.614 79.2554 186.542 79.2566H185.01C184.96 79.2604 184.91 79.2532 184.862 79.2354C184.815 79.2176 184.771 79.1895 184.733 79.1527C184.682 79.1013 184.641 79.0385 184.613 78.9685L184.127 77.5521H180.815L180.341 78.9685C180.314 79.0375 180.275 79.1 180.226 79.1527C180.186 79.1909 180.139 79.2198 180.089 79.2376C180.038 79.2555 179.985 79.2619 179.932 79.2566H178.395ZM181.319 75.5784H183.636L182.462 71.9428L181.319 75.5784Z" fill="white"/>
<path id="Vector_89" d="M188.416 76.117C188.374 76.119 188.333 76.1115 188.295 76.0949C188.256 76.0783 188.221 76.053 188.192 76.0205C188.162 75.9881 188.139 75.9493 188.124 75.9066C188.109 75.8639 188.102 75.8181 188.104 75.7724V74.4786C188.103 74.4328 188.11 74.387 188.124 74.3441C188.139 74.3012 188.161 74.2618 188.19 74.2284C188.251 74.1658 188.332 74.132 188.416 74.1339H192.312C192.353 74.1326 192.394 74.1402 192.432 74.1565C192.47 74.1727 192.505 74.1971 192.534 74.2284C192.564 74.261 192.587 74.3 192.603 74.3431C192.618 74.3862 192.625 74.4323 192.624 74.4786V75.7724C192.624 75.8178 192.617 75.8629 192.601 75.905C192.586 75.9471 192.563 75.9854 192.534 76.0175C192.505 76.0496 192.47 76.075 192.432 76.0921C192.394 76.1092 192.353 76.1177 192.312 76.117H188.416Z" fill="white"/>
<path id="Vector_90" d="M194.493 79.2577C194.451 79.2585 194.409 79.2496 194.37 79.2318C194.331 79.2139 194.296 79.1874 194.267 79.1538C194.212 79.0881 194.182 79.0022 194.181 78.913V77.5862C194.177 77.4758 194.201 77.3663 194.25 77.2699C194.283 77.2052 194.323 77.145 194.369 77.0905L198.376 71.6936H194.604C194.522 71.6933 194.444 71.6577 194.386 71.5945C194.355 71.5638 194.331 71.5258 194.314 71.4834C194.298 71.4409 194.291 71.395 194.292 71.349V69.9844C194.291 69.9383 194.298 69.8924 194.314 69.85C194.331 69.8075 194.355 69.7696 194.386 69.7389C194.444 69.6756 194.522 69.64 194.604 69.6397H200.873C200.959 69.6378 201.042 69.6735 201.103 69.7389C201.134 69.7702 201.158 69.8082 201.174 69.8505C201.19 69.8928 201.198 69.9385 201.197 69.9844V71.3206C201.199 71.4114 201.183 71.5016 201.15 71.585C201.122 71.659 201.083 71.7275 201.035 71.7881L197.139 77.1991H201.022C201.065 77.1984 201.108 77.2073 201.147 77.2251C201.187 77.2429 201.223 77.2693 201.253 77.3027C201.283 77.3362 201.307 77.376 201.323 77.4198C201.339 77.4637 201.347 77.5106 201.347 77.5579V78.9366C201.348 78.9826 201.34 79.0282 201.324 79.0705C201.307 79.1128 201.283 79.1509 201.253 79.1821C201.191 79.2476 201.108 79.2832 201.022 79.2813L194.493 79.2577Z" fill="white"/>
<path id="Vector_91" d="M5.4455 3.0124C5.4455 3.6082 5.28581 4.19062 4.98663 4.686C4.68745 5.18139 4.26222 5.5675 3.7647 5.7955C3.26718 6.0235 2.71973 6.08316 2.19157 5.96692C1.66341 5.85069 1.17826 5.56378 0.797475 5.14249C0.416692 4.7212 0.157376 4.18444 0.0523179 3.60009C-0.0527399 3.01575 0.00118015 2.41005 0.207258 1.85961C0.413337 1.30916 0.762317 0.838687 1.21007 0.50768C1.65782 0.176673 2.18424 0 2.72275 0C3.44487 0 4.13741 0.317378 4.64802 0.882313C5.15864 1.44725 5.4455 2.21346 5.4455 3.0124Z" fill="#F5C9B6"/>
<path id="Vector_92" d="M17.2797 3.0124C17.2805 3.60933 17.1213 4.19313 16.8221 4.68991C16.523 5.18669 16.0974 5.57414 15.5992 5.80323C15.101 6.03231 14.5525 6.09273 14.0232 5.97685C13.494 5.86096 13.0077 5.57398 12.6259 5.15222C12.2441 4.73046 11.9839 4.19287 11.8783 3.60747C11.7728 3.02208 11.8265 2.4152 12.0328 1.86361C12.2391 1.31203 12.5886 0.840541 13.0371 0.508806C13.4857 0.177071 14.0131 7.30961e-07 14.5526 0C15.2751 -9.78852e-07 15.9681 0.317225 16.4794 0.882024C16.9907 1.44682 17.2785 2.21303 17.2797 3.0124Z" fill="#F5C9B6"/>
<path id="Vector_93" d="M29.1095 3.0124C29.1103 3.60954 28.951 4.19352 28.6517 4.6904C28.3524 5.18729 27.9265 5.57474 27.428 5.80368C26.9296 6.03262 26.3809 6.09277 25.8515 5.9765C25.3221 5.86024 24.8358 5.57279 24.4542 5.15055C24.0725 4.72831 23.8127 4.19028 23.7076 3.60458C23.6026 3.01887 23.6569 2.41184 23.8639 1.86034C24.0708 1.30884 24.421 0.83768 24.8701 0.506513C25.3192 0.175347 25.847 -0.000930059 26.3867 3.69046e-06C27.1085 0.00125241 27.8004 0.31903 28.3108 0.883694C28.8211 1.44836 29.1084 2.21385 29.1095 3.0124Z" fill="#F5C9B6"/>
<path id="Vector_94" d="M40.9437 3.0124C40.9445 3.60933 40.7853 4.19313 40.4861 4.68991C40.187 5.18669 39.7614 5.57414 39.2632 5.80323C38.765 6.03231 38.2165 6.09273 37.6872 5.97685C37.158 5.86096 36.6717 5.57398 36.2899 5.15222C35.9081 4.73046 35.6479 4.19287 35.5423 3.60747C35.4368 3.02208 35.4905 2.4152 35.6968 1.86361C35.9031 1.31203 36.2526 0.840541 36.7011 0.508806C37.1497 0.177071 37.6771 7.30961e-07 38.2166 0C38.9391 -9.78852e-07 39.6321 0.317225 40.1434 0.882024C40.6547 1.44682 40.9425 2.21303 40.9437 3.0124Z" fill="#F5C9B6"/>
<path id="Vector_95" d="M70.1555 176.579H12.7389C12.7389 176.579 8.89799 170.814 9.00468 164.067C9.02458 162.322 9.33564 160.597 9.92222 158.977C10.563 157.177 11.7734 155.696 13.328 154.81C14.8826 153.924 16.6753 153.693 18.3721 154.161C21.4534 155.068 25.0766 157.849 27.236 165.389C27.1549 164.884 25.8021 156.748 28.7809 150.974C32.0328 144.685 40.5894 145.473 42.7702 152.31C43.6237 155.053 43.8968 158.821 42.736 163.982C42.9195 163.666 45.7959 158.5 50.1916 156.673C51.2172 156.229 52.3337 156.107 53.4179 156.321C54.5021 156.536 55.5117 157.077 56.3352 157.886C57.1587 158.695 57.7641 159.74 58.0844 160.906C58.4048 162.072 58.4278 163.313 58.1507 164.492C57.6814 166.458 56.8047 168.277 55.5901 169.804C57.7448 168.392 60.2605 167.806 62.7469 168.137C64.9162 168.451 66.9087 169.626 68.3546 171.442C69.5029 172.853 70.1436 174.681 70.1555 176.579Z" fill="#577052"/>
<path id="Vector_96" d="M57.31 159.152C52.893 167.948 43.0092 174.067 31.5207 174.067C22.3282 174.067 14.16 170.148 9.0047 164.067C9.02459 162.322 9.33566 160.597 9.92224 158.977C10.563 157.177 11.7734 155.696 13.328 154.81C14.8826 153.924 16.6753 153.693 18.3721 154.161C21.4534 155.068 25.0766 157.849 27.236 165.389C27.1549 164.884 25.8021 156.748 28.7809 150.974C32.0328 144.685 40.5894 145.473 42.7702 152.31C43.6237 155.053 43.8968 158.821 42.736 163.982C42.9195 163.666 45.7959 158.5 50.1916 156.673C51.4562 156.131 52.85 156.081 54.1436 156.531C55.4373 156.982 56.5539 157.906 57.31 159.152Z" fill="#63805D"/>
</g>
</svg>
